<?xml version="1.0" encoding="UTF-8" standalone="no"?>
<!DOCTYPE svg PUBLIC "-//W3C//DTD SVG 1.1//EN"
 "http://www.w3.org/Graphics/SVG/1.1/DTD/svg11.dtd">
<!-- Generated by graphviz version 2.40.1 (20161225.0304)
 -->
<!-- Title: The server infrastructure end up looking something like this. Pages: 1 -->
<svg width="750pt" height="390pt"
 viewBox="0.00 0.00 750.27 390.03" xmlns="http://www.w3.org/2000/svg" xmlns:xlink="http://www.w3.org/1999/xlink">
<g id="graph0" class="graph" transform="scale(1 1) rotate(0) translate(4 386.0313)">
<title>The server infrastructure end up looking something like this.</title>
<polygon fill="#ffffff" stroke="transparent" points="-4,4 -4,-386.0313 746.2713,-386.0313 746.2713,4 -4,4"/>
<text text-anchor="middle" x="371.1356" y="-8.2" font-family="Times,serif" font-size="14.00" fill="#000000">How the infrastructure might end up looking in the end</text>
<g id="clust1" class="cluster">
<title>cluster_github</title>
<polygon fill="none" stroke="#000000" points="125.6507,-128.6 125.6507,-205.4 289.6507,-205.4 289.6507,-128.6 125.6507,-128.6"/>
<text text-anchor="middle" x="153.0946" y="-136.8" font-family="Times,serif" font-size="14.00" fill="#000000">Github</text>
</g>
<g id="clust3" class="cluster">
<title>cluster_backend</title>
<polygon fill="none" stroke="#000000" points="314.6507,-32.8 314.6507,-294.2 732.6507,-294.2 732.6507,-32.8 314.6507,-32.8"/>
<text text-anchor="middle" x="441.5954" y="-41" font-family="Times,serif" font-size="14.00" fill="#000000">VPS (All of these services are dockerized)</text>
</g>
<!-- ghpages -->
<g id="node1" class="node">
<title>ghpages</title>
<polygon fill="none" stroke="#000000" points="282.1297,-197.4 133.1717,-197.4 133.1717,-193.4 129.1717,-193.4 129.1717,-189.4 133.1717,-189.4 133.1717,-169.4 129.1717,-169.4 129.1717,-165.4 133.1717,-165.4 133.1717,-161.4 282.1297,-161.4 282.1297,-197.4"/>
<polyline fill="none" stroke="#000000" points="133.1717,-193.4 137.1717,-193.4 137.1717,-189.4 133.1717,-189.4 "/>
<polyline fill="none" stroke="#000000" points="133.1717,-169.4 137.1717,-169.4 137.1717,-165.4 133.1717,-165.4 "/>
<text text-anchor="middle" x="207.6507" y="-175.2" font-family="Times,serif" font-size="14.00" fill="#000000">astralbijection.github.io</text>
</g>
<!-- django -->
<g id="node2" class="node">
<title>django</title>
<ellipse fill="none" stroke="#000000" cx="361.6507" cy="-179.4" rx="39.4273" ry="18"/>
<text text-anchor="middle" x="361.6507" y="-175.2" font-family="Times,serif" font-size="14.00" fill="#000000">Django</text>
</g>
<!-- ghpages&#45;&gt;django -->
<g id="edge7" class="edge">
<title>ghpages&#45;&gt;django</title>
<path fill="none" stroke="#000000" stroke-dasharray="5,2" d="M282.3952,-179.4C292.3062,-179.4 302.2671,-179.4 311.6203,-179.4"/>
<polygon fill="#000000" stroke="#000000" points="311.8872,-182.9001 321.8871,-179.4 311.8871,-175.9001 311.8872,-182.9001"/>
<text text-anchor="middle" x="302.1637" y="-186.6" font-family="Times,serif" font-size="14.00" fill="#000000">API</text>
</g>
<!-- db -->
<g id="node5" class="node">
<title>db</title>
<path fill="none" stroke="#000000" d="M393.5899,-98.3273C393.5899,-100.1331 379.2742,-101.6 361.6507,-101.6 344.0272,-101.6 329.7116,-100.1331 329.7116,-98.3273 329.7116,-98.3273 329.7116,-68.8727 329.7116,-68.8727 329.7116,-67.0669 344.0272,-65.6 361.6507,-65.6 379.2742,-65.6 393.5899,-67.0669 393.5899,-68.8727 393.5899,-68.8727 393.5899,-98.3273 393.5899,-98.3273"/>
<path fill="none" stroke="#000000" d="M393.5899,-98.3273C393.5899,-96.5214 379.2742,-95.0545 361.6507,-95.0545 344.0272,-95.0545 329.7116,-96.5214 329.7116,-98.3273"/>
<text text-anchor="middle" x="361.6507" y="-79.4" font-family="Times,serif" font-size="14.00" fill="#000000">Postgres</text>
</g>
<!-- django&#45;&gt;db -->
<g id="edge6" class="edge">
<title>django&#45;&gt;db</title>
<path fill="none" stroke="#000000" d="M361.6507,-161.3808C361.6507,-147.5527 361.6507,-128.193 361.6507,-112.2477"/>
<polygon fill="#000000" stroke="#000000" points="365.1508,-111.8641 361.6507,-101.8642 358.1508,-111.8642 365.1508,-111.8641"/>
</g>
<!-- nginx -->
<g id="node3" class="node">
<title>nginx</title>
<polygon fill="none" stroke="#000000" points="543.6507,-286.2 489.6507,-286.2 489.6507,-282.2 485.6507,-282.2 485.6507,-278.2 489.6507,-278.2 489.6507,-258.2 485.6507,-258.2 485.6507,-254.2 489.6507,-254.2 489.6507,-250.2 543.6507,-250.2 543.6507,-286.2"/>
<polyline fill="none" stroke="#000000" points="489.6507,-282.2 493.6507,-282.2 493.6507,-278.2 489.6507,-278.2 "/>
<polyline fill="none" stroke="#000000" points="489.6507,-258.2 493.6507,-258.2 493.6507,-254.2 489.6507,-254.2 "/>
<text text-anchor="middle" x="516.6507" y="-264" font-family="Times,serif" font-size="14.00" fill="#000000">Nginx</text>
</g>
<!-- nginx&#45;&gt;django -->
<g id="edge4" class="edge">
<title>nginx&#45;&gt;django</title>
<path fill="none" stroke="#000000" d="M489.3071,-264.8915C464.0227,-260.7225 426.3942,-251.5976 399.4403,-232.2 389.9413,-225.3639 381.9316,-215.3886 375.7656,-205.9445"/>
<polygon fill="#000000" stroke="#000000" points="378.6173,-203.8976 370.4304,-197.1726 372.6366,-207.5352 378.6173,-203.8976"/>
<text text-anchor="middle" x="416.7559" y="-219.6" font-family="Times,serif" font-size="14.00" fill="#000000">api.a.t</text>
</g>
<!-- etc -->
<g id="node4" class="node">
<title>etc</title>
<polygon fill="none" stroke="#000000" points="472.6507,-197.4 418.6507,-197.4 418.6507,-193.4 414.6507,-193.4 414.6507,-189.4 418.6507,-189.4 418.6507,-169.4 414.6507,-169.4 414.6507,-165.4 418.6507,-165.4 418.6507,-161.4 472.6507,-161.4 472.6507,-197.4"/>
<polyline fill="none" stroke="#000000" points="418.6507,-193.4 422.6507,-193.4 422.6507,-189.4 418.6507,-189.4 "/>
<polyline fill="none" stroke="#000000" points="418.6507,-169.4 422.6507,-169.4 422.6507,-165.4 418.6507,-165.4 "/>
<text text-anchor="middle" x="445.6507" y="-175.2" font-family="Times,serif" font-size="14.00" fill="#000000">...</text>
</g>
<!-- nginx&#45;&gt;etc -->
<g id="edge5" class="edge">
<title>nginx&#45;&gt;etc</title>
<path fill="none" stroke="#000000" d="M489.5208,-262.8549C472.565,-257.9614 452.0232,-248.8413 441.5455,-232.2 437.018,-225.009 436.2946,-216.1284 437.2187,-207.7155"/>
<polygon fill="#000000" stroke="#000000" points="440.6706,-208.2956 439.018,-197.8304 433.7837,-207.042 440.6706,-208.2956"/>
<text text-anchor="middle" x="453.7033" y="-219.6" font-family="Times,serif" font-size="14.00" fill="#000000">*.a.t</text>
</g>
<!-- mastodon -->
<g id="node6" class="node">
<title>mastodon</title>
<polygon fill="none" stroke="#000000" points="562.6451,-197.4 490.6563,-197.4 490.6563,-193.4 486.6563,-193.4 486.6563,-189.4 490.6563,-189.4 490.6563,-169.4 486.6563,-169.4 486.6563,-165.4 490.6563,-165.4 490.6563,-161.4 562.6451,-161.4 562.6451,-197.4"/>
<polyline fill="none" stroke="#000000" points="490.6563,-193.4 494.6563,-193.4 494.6563,-189.4 490.6563,-189.4 "/>
<polyline fill="none" stroke="#000000" points="490.6563,-169.4 494.6563,-169.4 494.6563,-165.4 490.6563,-165.4 "/>
<text text-anchor="middle" x="526.6507" y="-175.2" font-family="Times,serif" font-size="14.00" fill="#000000">Mastodon</text>
</g>
<!-- nginx&#45;&gt;mastodon -->
<g id="edge1" class="edge">
<title>nginx&#45;&gt;mastodon</title>
<path fill="none" stroke="#000000" d="M489.5738,-252.9191C475.8215,-243.0389 463.4739,-229.4398 471.1051,-215.4 472.3008,-213.2003 479.1195,-208.3262 487.5942,-202.8536"/>
<polygon fill="#000000" stroke="#000000" points="489.506,-205.7859 496.0974,-197.491 485.7719,-199.865 489.506,-205.7859"/>
<text text-anchor="middle" x="507.4235" y="-219.6" font-family="Times,serif" font-size="14.00" fill="#000000">mastodon.a.t</text>
</g>
<!-- matrix -->
<g id="node7" class="node">
<title>matrix</title>
<polygon fill="none" stroke="#000000" points="634.7518,-197.4 580.5496,-197.4 580.5496,-193.4 576.5496,-193.4 576.5496,-189.4 580.5496,-189.4 580.5496,-169.4 576.5496,-169.4 576.5496,-165.4 580.5496,-165.4 580.5496,-161.4 634.7518,-161.4 634.7518,-197.4"/>
<polyline fill="none" stroke="#000000" points="580.5496,-193.4 584.5496,-193.4 584.5496,-189.4 580.5496,-189.4 "/>
<polyline fill="none" stroke="#000000" points="580.5496,-169.4 584.5496,-169.4 584.5496,-165.4 580.5496,-165.4 "/>
<text text-anchor="middle" x="607.6507" y="-175.2" font-family="Times,serif" font-size="14.00" fill="#000000">Matrix</text>
</g>
<!-- nginx&#45;&gt;matrix -->
<g id="edge3" class="edge">
<title>nginx&#45;&gt;matrix</title>
<path fill="none" stroke="#000000" d="M532.6435,-250.15C542.0868,-239.7334 554.4237,-226.5334 565.9985,-215.4 569.7765,-211.7661 573.8474,-208.037 577.9123,-204.4202"/>
<polygon fill="#000000" stroke="#000000" points="580.4207,-206.8762 585.6434,-197.658 575.8121,-201.6073 580.4207,-206.8762"/>
<text text-anchor="middle" x="593.4768" y="-219.6" font-family="Times,serif" font-size="14.00" fill="#000000">matrix.a.t</text>
</g>
<!-- minecraft -->
<g id="node8" class="node">
<title>minecraft</title>
<polygon fill="none" stroke="#000000" points="724.3418,-197.4 652.9597,-197.4 652.9597,-193.4 648.9597,-193.4 648.9597,-189.4 652.9597,-189.4 652.9597,-169.4 648.9597,-169.4 648.9597,-165.4 652.9597,-165.4 652.9597,-161.4 724.3418,-161.4 724.3418,-197.4"/>
<polyline fill="none" stroke="#000000" points="652.9597,-193.4 656.9597,-193.4 656.9597,-189.4 652.9597,-189.4 "/>
<polyline fill="none" stroke="#000000" points="652.9597,-169.4 656.9597,-169.4 656.9597,-165.4 652.9597,-165.4 "/>
<text text-anchor="middle" x="688.6507" y="-175.2" font-family="Times,serif" font-size="14.00" fill="#000000">Minecraft</text>
</g>
<!-- nginx&#45;&gt;minecraft -->
<g id="edge2" class="edge">
<title>nginx&#45;&gt;minecraft</title>
<path fill="none" stroke="#000000" d="M543.877,-261.2447C565.2316,-255.1932 595.3101,-245.3305 619.6507,-232.2 623.8901,-229.9131 641.0774,-216.7631 657.2361,-204.1599"/>
<polygon fill="#000000" stroke="#000000" points="659.7994,-206.5983 665.5183,-197.6795 655.4858,-201.0853 659.7994,-206.5983"/>
<text text-anchor="middle" x="684.0585" y="-219.6" font-family="Times,serif" font-size="14.00" fill="#000000">dynmap.mc.a.t</text>
</g>
<!-- user1 -->
<g id="node9" class="node">
<title>user1</title>
<ellipse fill="none" stroke="#000000" cx="67.6507" cy="-352.6156" rx="67.8018" ry="29.3315"/>
<text text-anchor="middle" x="67.6507" y="-356.8156" font-family="Times,serif" font-size="14.00" fill="#000000">User 1</text>
<text text-anchor="middle" x="67.6507" y="-340.0156" font-family="Times,serif" font-size="14.00" fill="#000000">(Job recruiter)</text>
</g>
<!-- user1&#45;&gt;ghpages -->
<g id="edge8" class="edge">
<title>user1&#45;&gt;ghpages</title>
<path fill="none" stroke="#000000" d="M90.1442,-324.7856C116.6809,-291.9528 160.4643,-237.7816 186.4331,-205.6516"/>
<polygon fill="#000000" stroke="#000000" points="189.3793,-207.5744 192.9432,-197.597 183.9351,-203.1742 189.3793,-207.5744"/>
</g>
<!-- user2 -->
<g id="node10" class="node">
<title>user2</title>
<ellipse fill="none" stroke="#000000" cx="252.6507" cy="-352.6156" rx="99.0069" ry="29.3315"/>
<text text-anchor="middle" x="252.6507" y="-356.8156" font-family="Times,serif" font-size="14.00" fill="#000000">User 2</text>
<text text-anchor="middle" x="252.6507" y="-340.0156" font-family="Times,serif" font-size="14.00" fill="#000000">(Technology Enjoyer)</text>
</g>
<!-- user2&#45;&gt;ghpages -->
<g id="edge9" class="edge">
<title>user2&#45;&gt;ghpages</title>
<path fill="none" stroke="#000000" d="M245.0171,-323.232C236.6364,-290.9726 223.2749,-239.5409 215.0063,-207.7133"/>
<polygon fill="#000000" stroke="#000000" points="218.3141,-206.5257 212.412,-197.7271 211.5389,-208.2859 218.3141,-206.5257"/>
</g>
<!-- user3 -->
<g id="node11" class="node">
<title>user3</title>
<ellipse fill="none" stroke="#000000" cx="677.6507" cy="-352.6156" rx="64.7412" ry="29.3315"/>
<text text-anchor="middle" x="677.6507" y="-356.8156" font-family="Times,serif" font-size="14.00" fill="#000000">User 3</text>
<text text-anchor="middle" x="677.6507" y="-340.0156" font-family="Times,serif" font-size="14.00" fill="#000000">(Minecrafter)</text>
</g>
<!-- user3&#45;&gt;nginx -->
<g id="edge11" class="edge">
<title>user3&#45;&gt;nginx</title>
<path fill="none" stroke="#000000" d="M634.9284,-330.2154C609.3208,-316.7888 577.1172,-299.9038 552.7813,-287.144"/>
<polygon fill="#000000" stroke="#000000" points="554.3514,-284.0154 543.8697,-282.4715 551.1009,-290.2149 554.3514,-284.0154"/>
</g>
<!-- user3&#45;&gt;minecraft -->
<g id="edge10" class="edge">
<title>user3&#45;&gt;minecraft</title>
<path fill="none" stroke="#000000" d="M692.7188,-323.8695C704.3096,-300.0458 719.3715,-264.9105 725.6507,-232.2 727.0584,-224.8672 728.5553,-222.2786 725.6507,-215.4 724.169,-211.891 722.1595,-208.5549 719.8383,-205.4309"/>
<polygon fill="#000000" stroke="#000000" points="722.3126,-202.942 713.1143,-197.6844 717.0262,-207.5306 722.3126,-202.942"/>
</g>
</g>
</svg>
