<?xml version="1.0" encoding="UTF-8" standalone="no"?>
<!DOCTYPE svg PUBLIC "-//W3C//DTD SVG 1.1//EN"
 "http://www.w3.org/Graphics/SVG/1.1/DTD/svg11.dtd">
<!-- Generated by graphviz version 2.40.1 (20161225.0304)
 -->
<!-- Title: %0 Pages: 1 -->
<svg width="573pt" height="433pt"
 viewBox="0.00 0.00 572.78 433.00" xmlns="http://www.w3.org/2000/svg" xmlns:xlink="http://www.w3.org/1999/xlink">
<g id="graph0" class="graph" transform="scale(1 1) rotate(0) translate(4 429)">
<title>%0</title>
<polygon fill="#ffffff" stroke="transparent" points="-4,4 -4,-429 568.7752,-429 568.7752,4 -4,4"/>
<g id="clust1" class="cluster">
<title>cluster_node1</title>
<polygon fill="none" stroke="#000000" points="8,-286 8,-417 154.3911,-417 154.3911,-286 8,-286"/>
<text text-anchor="middle" x="81.1956" y="-400.4" font-family="Times,serif" font-size="14.00" fill="#000000">Node 1</text>
</g>
<g id="clust2" class="cluster">
<title>cluster_node2</title>
<polygon fill="none" stroke="#000000" points="8,-147 8,-278 154.3911,-278 154.3911,-147 8,-147"/>
<text text-anchor="middle" x="81.1956" y="-261.4" font-family="Times,serif" font-size="14.00" fill="#000000">Node 2</text>
</g>
<g id="clust3" class="cluster">
<title>cluster_node3</title>
<polygon fill="none" stroke="#000000" points="8,-8 8,-139 154.3911,-139 154.3911,-8 8,-8"/>
<text text-anchor="middle" x="81.1956" y="-122.4" font-family="Times,serif" font-size="14.00" fill="#000000">Node 3</text>
</g>
<!-- ne1 -->
<g id="node1" class="node">
<title>ne1</title>
<ellipse fill="none" stroke="#000000" cx="81.1956" cy="-366" rx="65.3917" ry="18"/>
<text text-anchor="middle" x="81.1956" y="-361.8" font-family="Times,serif" font-size="14.00" fill="#000000">node&#45;exporter</text>
</g>
<!-- prometheus -->
<g id="node7" class="node">
<title>prometheus</title>
<path fill="none" stroke="#000000" d="M263.8651,-241.7273C263.8651,-243.5331 245.5706,-245 223.0489,-245 200.5272,-245 182.2327,-243.5331 182.2327,-241.7273 182.2327,-241.7273 182.2327,-212.2727 182.2327,-212.2727 182.2327,-210.4669 200.5272,-209 223.0489,-209 245.5706,-209 263.8651,-210.4669 263.8651,-212.2727 263.8651,-212.2727 263.8651,-241.7273 263.8651,-241.7273"/>
<path fill="none" stroke="#000000" d="M263.8651,-241.7273C263.8651,-239.9214 245.5706,-238.4545 223.0489,-238.4545 200.5272,-238.4545 182.2327,-239.9214 182.2327,-241.7273"/>
<text text-anchor="middle" x="223.0489" y="-222.8" font-family="Times,serif" font-size="14.00" fill="#000000">prometheus</text>
</g>
<!-- ne1&#45;&gt;prometheus -->
<g id="edge1" class="edge">
<title>ne1&#45;&gt;prometheus</title>
<path fill="none" stroke="#000000" stroke-dasharray="5,2" d="M128.9762,-353.6353C138.016,-349.8932 146.9567,-345.1 154.3911,-339 181.9418,-316.3942 201.4392,-279.6573 212.45,-254.4622"/>
<polygon fill="#000000" stroke="#000000" points="215.7372,-255.674 216.3852,-245.099 209.284,-252.9618 215.7372,-255.674"/>
</g>
<!-- fb1 -->
<g id="node2" class="node">
<title>fb1</title>
<ellipse fill="none" stroke="#000000" cx="81.1956" cy="-312" rx="46.9458" ry="18"/>
<text text-anchor="middle" x="81.1956" y="-307.8" font-family="Times,serif" font-size="14.00" fill="#000000">fluent&#45;bit</text>
</g>
<!-- fluentd -->
<g id="node10" class="node">
<title>fluentd</title>
<ellipse fill="none" stroke="#000000" cx="223.0489" cy="-173" rx="38.2818" ry="18"/>
<text text-anchor="middle" x="223.0489" y="-168.8" font-family="Times,serif" font-size="14.00" fill="#000000">fluentd</text>
</g>
<!-- fb1&#45;&gt;fluentd -->
<g id="edge5" class="edge">
<title>fb1&#45;&gt;fluentd</title>
<path fill="none" stroke="#000000" d="M121.3993,-302.4541C133.3206,-297.9389 145.5403,-291.3978 154.3911,-282 180.7941,-253.9653 158.8766,-230.498 182.3911,-200 184.4089,-197.383 186.7555,-194.9367 189.2839,-192.6698"/>
<polygon fill="#000000" stroke="#000000" points="191.5532,-195.3382 197.2675,-186.4164 187.2368,-189.8275 191.5532,-195.3382"/>
</g>
<!-- ne2 -->
<g id="node3" class="node">
<title>ne2</title>
<ellipse fill="none" stroke="#000000" cx="81.1956" cy="-227" rx="65.3917" ry="18"/>
<text text-anchor="middle" x="81.1956" y="-222.8" font-family="Times,serif" font-size="14.00" fill="#000000">node&#45;exporter</text>
</g>
<!-- ne2&#45;&gt;prometheus -->
<g id="edge2" class="edge">
<title>ne2&#45;&gt;prometheus</title>
<path fill="none" stroke="#000000" stroke-dasharray="5,2" d="M146.7243,-227C155.1973,-227 163.7737,-227 171.966,-227"/>
<polygon fill="#000000" stroke="#000000" points="172.1009,-230.5001 182.1008,-227 172.1008,-223.5001 172.1009,-230.5001"/>
</g>
<!-- fb2 -->
<g id="node4" class="node">
<title>fb2</title>
<ellipse fill="none" stroke="#000000" cx="81.1956" cy="-173" rx="46.9458" ry="18"/>
<text text-anchor="middle" x="81.1956" y="-168.8" font-family="Times,serif" font-size="14.00" fill="#000000">fluent&#45;bit</text>
</g>
<!-- fb2&#45;&gt;fluentd -->
<g id="edge6" class="edge">
<title>fb2&#45;&gt;fluentd</title>
<path fill="none" stroke="#000000" d="M128.4307,-173C143.2301,-173 159.5844,-173 174.4746,-173"/>
<polygon fill="#000000" stroke="#000000" points="174.5123,-176.5001 184.5123,-173 174.5122,-169.5001 174.5123,-176.5001"/>
</g>
<!-- ne3 -->
<g id="node5" class="node">
<title>ne3</title>
<ellipse fill="none" stroke="#000000" cx="81.1956" cy="-88" rx="65.3917" ry="18"/>
<text text-anchor="middle" x="81.1956" y="-83.8" font-family="Times,serif" font-size="14.00" fill="#000000">node&#45;exporter</text>
</g>
<!-- ne3&#45;&gt;prometheus -->
<g id="edge3" class="edge">
<title>ne3&#45;&gt;prometheus</title>
<path fill="none" stroke="#000000" stroke-dasharray="5,2" d="M109.1263,-104.4435C123.9726,-114.2233 141.7208,-127.6951 154.3911,-143 172.3899,-164.7413 163.7674,-178.7915 182.3911,-200 183.2402,-200.967 184.1317,-201.9143 185.0575,-202.8408"/>
<polygon fill="#000000" stroke="#000000" points="182.8627,-205.5709 192.6944,-209.5192 187.4708,-200.3016 182.8627,-205.5709"/>
</g>
<!-- fb3 -->
<g id="node6" class="node">
<title>fb3</title>
<ellipse fill="none" stroke="#000000" cx="81.1956" cy="-34" rx="46.9458" ry="18"/>
<text text-anchor="middle" x="81.1956" y="-29.8" font-family="Times,serif" font-size="14.00" fill="#000000">fluent&#45;bit</text>
</g>
<!-- fb3&#45;&gt;fluentd -->
<g id="edge7" class="edge">
<title>fb3&#45;&gt;fluentd</title>
<path fill="none" stroke="#000000" d="M121.3449,-43.4468C132.8594,-47.51 144.8626,-53.1817 154.3911,-61 181.9418,-83.6058 201.4392,-120.3427 212.45,-145.5378"/>
<polygon fill="#000000" stroke="#000000" points="209.284,-147.0382 216.3852,-154.901 215.7372,-144.326 209.284,-147.0382"/>
</g>
<!-- grafana -->
<g id="node8" class="node">
<title>grafana</title>
<ellipse fill="none" stroke="#000000" cx="429.6899" cy="-200" rx="39.9664" ry="18"/>
<text text-anchor="middle" x="429.6899" y="-195.8" font-family="Times,serif" font-size="14.00" fill="#000000">grafana</text>
</g>
<!-- prometheus&#45;&gt;grafana -->
<g id="edge4" class="edge">
<title>prometheus&#45;&gt;grafana</title>
<path fill="none" stroke="#000000" d="M263.8745,-221.6657C297.4891,-217.2735 345.2401,-211.0343 380.8731,-206.3785"/>
<polygon fill="#000000" stroke="#000000" points="381.5836,-209.8155 391.0458,-205.0493 380.6766,-202.8745 381.5836,-209.8155"/>
</g>
<!-- me -->
<g id="node11" class="node">
<title>me</title>
<polygon fill="none" stroke="#000000" points="564.8263,-205.5623 535.2241,-218 505.622,-205.5623 505.6496,-185.4377 564.7986,-185.4377 564.8263,-205.5623"/>
<text text-anchor="middle" x="535.2241" y="-195.8" font-family="Times,serif" font-size="14.00" fill="#000000">Me</text>
</g>
<!-- grafana&#45;&gt;me -->
<g id="edge10" class="edge">
<title>grafana&#45;&gt;me</title>
<path fill="none" stroke="#000000" d="M469.8889,-200C478.2441,-200 487.0457,-200 495.3878,-200"/>
<polygon fill="#000000" stroke="#000000" points="495.6406,-203.5001 505.6405,-200 495.6405,-196.5001 495.6406,-203.5001"/>
</g>
<!-- loki -->
<g id="node9" class="node">
<title>loki</title>
<path fill="none" stroke="#000000" d="M353.7067,-191.7273C353.7067,-193.5331 341.6049,-195 326.7067,-195 311.8085,-195 299.7067,-193.5331 299.7067,-191.7273 299.7067,-191.7273 299.7067,-162.2727 299.7067,-162.2727 299.7067,-160.4669 311.8085,-159 326.7067,-159 341.6049,-159 353.7067,-160.4669 353.7067,-162.2727 353.7067,-162.2727 353.7067,-191.7273 353.7067,-191.7273"/>
<path fill="none" stroke="#000000" d="M353.7067,-191.7273C353.7067,-189.9214 341.6049,-188.4545 326.7067,-188.4545 311.8085,-188.4545 299.7067,-189.9214 299.7067,-191.7273"/>
<text text-anchor="middle" x="326.7067" y="-172.8" font-family="Times,serif" font-size="14.00" fill="#000000">loki</text>
</g>
<!-- loki&#45;&gt;grafana -->
<g id="edge9" class="edge">
<title>loki&#45;&gt;grafana</title>
<path fill="none" stroke="#000000" d="M353.7643,-183.043C362.8822,-185.0793 373.3308,-187.4129 383.5005,-189.6842"/>
<polygon fill="#000000" stroke="#000000" points="382.9952,-193.1575 393.5176,-191.9214 384.521,-186.3258 382.9952,-193.1575"/>
</g>
<!-- fluentd&#45;&gt;loki -->
<g id="edge8" class="edge">
<title>fluentd&#45;&gt;loki</title>
<path fill="none" stroke="#000000" d="M261.3527,-174.4781C270.5713,-174.8338 280.4036,-175.2132 289.5681,-175.5669"/>
<polygon fill="#000000" stroke="#000000" points="289.4353,-179.0643 299.5628,-175.9526 289.7053,-172.0695 289.4353,-179.0643"/>
</g>
</g>
</svg>
