<?xml version="1.0" encoding="UTF-8" standalone="no"?>
<!DOCTYPE svg PUBLIC "-//W3C//DTD SVG 1.1//EN"
 "http://www.w3.org/Graphics/SVG/1.1/DTD/svg11.dtd">
<!-- Generated by graphviz version 2.40.1 (20161225.0304)
 -->
<!-- Title: %0 Pages: 1 -->
<svg width="606pt" height="433pt"
 viewBox="0.00 0.00 606.28 433.00" xmlns="http://www.w3.org/2000/svg" xmlns:xlink="http://www.w3.org/1999/xlink">
<g id="graph0" class="graph" transform="scale(1 1) rotate(0) translate(4 429)">
<title>%0</title>
<polygon fill="#ffffff" stroke="transparent" points="-4,4 -4,-429 602.2844,-429 602.2844,4 -4,4"/>
<g id="clust1" class="cluster">
<title>cluster_node1</title>
<polygon fill="none" stroke="#000000" points="8,-286 8,-417 154.3911,-417 154.3911,-286 8,-286"/>
<text text-anchor="middle" x="81.1956" y="-400.4" font-family="Times,serif" font-size="14.00" fill="#000000">Node 1</text>
</g>
<g id="clust2" class="cluster">
<title>cluster_node2</title>
<polygon fill="none" stroke="#000000" points="8,-147 8,-278 154.3911,-278 154.3911,-147 8,-147"/>
<text text-anchor="middle" x="81.1956" y="-261.4" font-family="Times,serif" font-size="14.00" fill="#000000">Node 2</text>
</g>
<g id="clust3" class="cluster">
<title>cluster_node3</title>
<polygon fill="none" stroke="#000000" points="8,-8 8,-139 154.3911,-139 154.3911,-8 8,-8"/>
<text text-anchor="middle" x="81.1956" y="-122.4" font-family="Times,serif" font-size="14.00" fill="#000000">Node 3</text>
</g>
<!-- ne1 -->
<g id="node1" class="node">
<title>ne1</title>
<ellipse fill="none" stroke="#000000" cx="81.1956" cy="-366" rx="65.3917" ry="18"/>
<text text-anchor="middle" x="81.1956" y="-361.8" font-family="Times,serif" font-size="14.00" fill="#000000">node&#45;exporter</text>
</g>
<!-- prometheus -->
<g id="node7" class="node">
<title>prometheus</title>
<path fill="none" stroke="#000000" d="M263.8651,-241.7273C263.8651,-243.5331 245.5706,-245 223.0489,-245 200.5272,-245 182.2327,-243.5331 182.2327,-241.7273 182.2327,-241.7273 182.2327,-212.2727 182.2327,-212.2727 182.2327,-210.4669 200.5272,-209 223.0489,-209 245.5706,-209 263.8651,-210.4669 263.8651,-212.2727 263.8651,-212.2727 263.8651,-241.7273 263.8651,-241.7273"/>
<path fill="none" stroke="#000000" d="M263.8651,-241.7273C263.8651,-239.9214 245.5706,-238.4545 223.0489,-238.4545 200.5272,-238.4545 182.2327,-239.9214 182.2327,-241.7273"/>
<text text-anchor="middle" x="223.0489" y="-222.8" font-family="Times,serif" font-size="14.00" fill="#000000">prometheus</text>
</g>
<!-- ne1&#45;&gt;prometheus -->
<g id="edge1" class="edge">
<title>ne1&#45;&gt;prometheus</title>
<path fill="none" stroke="#000000" d="M128.9762,-353.6353C138.016,-349.8932 146.9567,-345.1 154.3911,-339 181.9418,-316.3942 201.4392,-279.6573 212.45,-254.4622"/>
<polygon fill="#000000" stroke="#000000" points="215.7372,-255.674 216.3852,-245.099 209.284,-252.9618 215.7372,-255.674"/>
</g>
<!-- fb1 -->
<g id="node2" class="node">
<title>fb1</title>
<ellipse fill="none" stroke="#000000" cx="81.1956" cy="-312" rx="46.9458" ry="18"/>
<text text-anchor="middle" x="81.1956" y="-307.8" font-family="Times,serif" font-size="14.00" fill="#000000">fluent&#45;bit</text>
</g>
<!-- fluentd -->
<g id="node10" class="node">
<title>fluentd</title>
<ellipse fill="none" stroke="#000000" cx="223.0489" cy="-173" rx="38.2818" ry="18"/>
<text text-anchor="middle" x="223.0489" y="-168.8" font-family="Times,serif" font-size="14.00" fill="#000000">fluentd</text>
</g>
<!-- fb1&#45;&gt;fluentd -->
<g id="edge5" class="edge">
<title>fb1&#45;&gt;fluentd</title>
<path fill="none" stroke="#000000" d="M121.3993,-302.4541C133.3206,-297.9389 145.5403,-291.3978 154.3911,-282 180.7941,-253.9653 158.8766,-230.498 182.3911,-200 184.4089,-197.383 186.7555,-194.9367 189.2839,-192.6698"/>
<polygon fill="#000000" stroke="#000000" points="191.5532,-195.3382 197.2675,-186.4164 187.2368,-189.8275 191.5532,-195.3382"/>
</g>
<!-- ne2 -->
<g id="node3" class="node">
<title>ne2</title>
<ellipse fill="none" stroke="#000000" cx="81.1956" cy="-227" rx="65.3917" ry="18"/>
<text text-anchor="middle" x="81.1956" y="-222.8" font-family="Times,serif" font-size="14.00" fill="#000000">node&#45;exporter</text>
</g>
<!-- ne2&#45;&gt;prometheus -->
<g id="edge2" class="edge">
<title>ne2&#45;&gt;prometheus</title>
<path fill="none" stroke="#000000" d="M146.7243,-227C155.1973,-227 163.7737,-227 171.966,-227"/>
<polygon fill="#000000" stroke="#000000" points="172.1009,-230.5001 182.1008,-227 172.1008,-223.5001 172.1009,-230.5001"/>
</g>
<!-- fb2 -->
<g id="node4" class="node">
<title>fb2</title>
<ellipse fill="none" stroke="#000000" cx="81.1956" cy="-173" rx="46.9458" ry="18"/>
<text text-anchor="middle" x="81.1956" y="-168.8" font-family="Times,serif" font-size="14.00" fill="#000000">fluent&#45;bit</text>
</g>
<!-- fb2&#45;&gt;fluentd -->
<g id="edge6" class="edge">
<title>fb2&#45;&gt;fluentd</title>
<path fill="none" stroke="#000000" d="M128.4307,-173C143.2301,-173 159.5844,-173 174.4746,-173"/>
<polygon fill="#000000" stroke="#000000" points="174.5123,-176.5001 184.5123,-173 174.5122,-169.5001 174.5123,-176.5001"/>
</g>
<!-- ne3 -->
<g id="node5" class="node">
<title>ne3</title>
<ellipse fill="none" stroke="#000000" cx="81.1956" cy="-88" rx="65.3917" ry="18"/>
<text text-anchor="middle" x="81.1956" y="-83.8" font-family="Times,serif" font-size="14.00" fill="#000000">node&#45;exporter</text>
</g>
<!-- ne3&#45;&gt;prometheus -->
<g id="edge3" class="edge">
<title>ne3&#45;&gt;prometheus</title>
<path fill="none" stroke="#000000" d="M109.1263,-104.4435C123.9726,-114.2233 141.7208,-127.6951 154.3911,-143 172.3899,-164.7413 163.7674,-178.7915 182.3911,-200 183.2402,-200.967 184.1317,-201.9143 185.0575,-202.8408"/>
<polygon fill="#000000" stroke="#000000" points="182.8627,-205.5709 192.6944,-209.5192 187.4708,-200.3016 182.8627,-205.5709"/>
</g>
<!-- fb3 -->
<g id="node6" class="node">
<title>fb3</title>
<ellipse fill="none" stroke="#000000" cx="81.1956" cy="-34" rx="46.9458" ry="18"/>
<text text-anchor="middle" x="81.1956" y="-29.8" font-family="Times,serif" font-size="14.00" fill="#000000">fluent&#45;bit</text>
</g>
<!-- fb3&#45;&gt;fluentd -->
<g id="edge7" class="edge">
<title>fb3&#45;&gt;fluentd</title>
<path fill="none" stroke="#000000" d="M121.3449,-43.4468C132.8594,-47.51 144.8626,-53.1817 154.3911,-61 181.9418,-83.6058 201.4392,-120.3427 212.45,-145.5378"/>
<polygon fill="#000000" stroke="#000000" points="209.284,-147.0382 216.3852,-154.901 215.7372,-144.326 209.284,-147.0382"/>
</g>
<!-- grafana -->
<g id="node8" class="node">
<title>grafana</title>
<ellipse fill="none" stroke="#000000" cx="463.1991" cy="-227" rx="39.9664" ry="18"/>
<text text-anchor="middle" x="463.1991" y="-222.8" font-family="Times,serif" font-size="14.00" fill="#000000">grafana</text>
</g>
<!-- prometheus&#45;&gt;grafana -->
<g id="edge4" class="edge">
<title>prometheus&#45;&gt;grafana</title>
<path fill="none" stroke="#000000" d="M263.7871,-227C304.918,-227 368.529,-227 412.8076,-227"/>
<polygon fill="#000000" stroke="#000000" points="413.0626,-230.5001 423.0625,-227 413.0625,-223.5001 413.0626,-230.5001"/>
</g>
<!-- me -->
<g id="node12" class="node">
<title>me</title>
<polygon fill="none" stroke="#000000" points="598.3355,-205.5623 568.7333,-218 539.1312,-205.5623 539.1588,-185.4377 598.3078,-185.4377 598.3355,-205.5623"/>
<text text-anchor="middle" x="568.7333" y="-195.8" font-family="Times,serif" font-size="14.00" fill="#000000">Me</text>
</g>
<!-- grafana&#45;&gt;me -->
<g id="edge12" class="edge">
<title>grafana&#45;&gt;me</title>
<path fill="none" stroke="#000000" d="M498.0474,-218.0844C508.9876,-215.2854 521.0939,-212.1881 532.1505,-209.3594"/>
<polygon fill="#000000" stroke="#000000" points="533.1255,-212.7228 541.9459,-206.8533 531.3904,-205.9412 533.1255,-212.7228"/>
</g>
<!-- elasticsearch -->
<g id="node9" class="node">
<title>elasticsearch</title>
<path fill="none" stroke="#000000" d="M386.9719,-187.7273C386.9719,-189.5331 367.4697,-191 343.4613,-191 319.4529,-191 299.9507,-189.5331 299.9507,-187.7273 299.9507,-187.7273 299.9507,-158.2727 299.9507,-158.2727 299.9507,-156.4669 319.4529,-155 343.4613,-155 367.4697,-155 386.9719,-156.4669 386.9719,-158.2727 386.9719,-158.2727 386.9719,-187.7273 386.9719,-187.7273"/>
<path fill="none" stroke="#000000" d="M386.9719,-187.7273C386.9719,-185.9214 367.4697,-184.4545 343.4613,-184.4545 319.4529,-184.4545 299.9507,-185.9214 299.9507,-187.7273"/>
<text text-anchor="middle" x="343.4613" y="-168.8" font-family="Times,serif" font-size="14.00" fill="#000000">elasticsearch</text>
</g>
<!-- elasticsearch&#45;&gt;grafana -->
<g id="edge10" class="edge">
<title>elasticsearch&#45;&gt;grafana</title>
<path fill="none" stroke="#000000" d="M381.3471,-190.0859C395.3754,-196.4125 411.2738,-203.5824 425.303,-209.9094"/>
<polygon fill="#000000" stroke="#000000" points="424.1163,-213.2136 434.671,-214.1343 426.9941,-206.8325 424.1163,-213.2136"/>
</g>
<!-- kibana -->
<g id="node11" class="node">
<title>kibana</title>
<ellipse fill="none" stroke="#000000" cx="463.1991" cy="-173" rx="36.5594" ry="18"/>
<text text-anchor="middle" x="463.1991" y="-168.8" font-family="Times,serif" font-size="14.00" fill="#000000">kibana</text>
</g>
<!-- elasticsearch&#45;&gt;kibana -->
<g id="edge9" class="edge">
<title>elasticsearch&#45;&gt;kibana</title>
<path fill="none" stroke="#000000" d="M387.0281,-173C396.4564,-173 406.4685,-173 416.028,-173"/>
<polygon fill="#000000" stroke="#000000" points="416.1742,-176.5001 426.1742,-173 416.1742,-169.5001 416.1742,-176.5001"/>
</g>
<!-- fluentd&#45;&gt;elasticsearch -->
<g id="edge8" class="edge">
<title>fluentd&#45;&gt;elasticsearch</title>
<path fill="none" stroke="#000000" d="M261.4792,-173C270.3751,-173 280.0041,-173 289.4291,-173"/>
<polygon fill="#000000" stroke="#000000" points="289.5319,-176.5001 299.5318,-173 289.5318,-169.5001 289.5319,-176.5001"/>
</g>
<!-- kibana&#45;&gt;me -->
<g id="edge11" class="edge">
<title>kibana&#45;&gt;me</title>
<path fill="none" stroke="#000000" d="M496.0123,-181.395C506.5746,-184.0972 518.3879,-187.1196 529.3713,-189.9296"/>
<polygon fill="#000000" stroke="#000000" points="528.6096,-193.3474 539.1651,-192.4352 530.3447,-186.5658 528.6096,-193.3474"/>
</g>
</g>
</svg>
