<?xml version="1.0" encoding="UTF-8" standalone="no"?>
<!DOCTYPE svg PUBLIC "-//W3C//DTD SVG 1.1//EN"
 "http://www.w3.org/Graphics/SVG/1.1/DTD/svg11.dtd">
<!-- Generated by graphviz version 2.40.1 (20161225.0304)
 -->
<!-- Title: %0 Pages: 1 -->
<svg width="730pt" height="260pt"
 viewBox="0.00 0.00 729.65 260.00" xmlns="http://www.w3.org/2000/svg" xmlns:xlink="http://www.w3.org/1999/xlink">
<g id="graph0" class="graph" transform="scale(1 1) rotate(0) translate(4 256)">
<title>%0</title>
<!-- ... -->
<g id="node1" class="node">
<title>...</title>
<polygon fill="transparent" stroke="transparent" points="105.5684,-36 51.5684,-36 51.5684,0 105.5684,0 105.5684,-36"/>
<text text-anchor="middle" x="78.5684" y="-13.8" font-family="Times,serif" font-size="14.00" fill="#000000">...</text>
</g>
<!-- hst4 -->
<g id="node2" class="node">
<title>hst4</title>
<polygon fill="#ffff00" stroke="#000000" points="254.3421,-84 193.0683,-84 193.0683,-60 254.3421,-60 266.3421,-72 254.3421,-84"/>
<text text-anchor="middle" x="229.7052" y="-67.8" font-family="Times,serif" font-size="14.00" fill="#000000">Heap start</text>
</g>
<!-- 02 -->
<g id="node4" class="node">
<title>02</title>
<polygon fill="#ffffff" stroke="#000000" points="368.1955,-90 314.1955,-90 314.1955,-54 368.1955,-54 368.1955,-90"/>
<text text-anchor="middle" x="341.1955" y="-67.8" font-family="Times,serif" font-size="14.00" fill="#000000">0</text>
</g>
<!-- hst4&#45;&gt;02 -->
<g id="edge1" class="edge">
<title>hst4&#45;&gt;02</title>
<path fill="none" stroke="#000000" d="M266.5203,-72C278.4902,-72 291.7814,-72 303.7937,-72"/>
<polygon fill="#000000" stroke="#000000" points="303.9554,-75.5001 313.9553,-72 303.9553,-68.5001 303.9554,-75.5001"/>
</g>
<!-- sbrk4 -->
<g id="node3" class="node">
<title>sbrk4</title>
<ellipse fill="#40e0d0" stroke="#000000" cx="682.7269" cy="-72" rx="38.844" ry="18"/>
<text text-anchor="middle" x="682.7269" y="-67.8" font-family="Times,serif" font-size="14.00" fill="#000000">sbrk(0)</text>
</g>
<!-- 12 -->
<g id="node5" class="node">
<title>12</title>
<polygon fill="#ffffff" stroke="#000000" points="482.0393,-90 428.0393,-90 428.0393,-54 482.0393,-54 482.0393,-90"/>
<text text-anchor="middle" x="455.0393" y="-67.8" font-family="Times,serif" font-size="14.00" fill="#000000">1</text>
</g>
<!-- 02&#45;&gt;12 -->
<g id="edge2" class="edge">
<title>02&#45;&gt;12</title>
<path fill="none" stroke="#000000" d="M368.4639,-72C383.2492,-72 401.7376,-72 417.8286,-72"/>
<polygon fill="#000000" stroke="#000000" points="417.9934,-75.5001 427.9934,-72 417.9933,-68.5001 417.9934,-75.5001"/>
</g>
<!-- 22 -->
<g id="node6" class="node">
<title>22</title>
<polygon fill="#ffffff" stroke="#000000" points="595.8831,-90 541.8831,-90 541.8831,-54 595.8831,-54 595.8831,-90"/>
<text text-anchor="middle" x="568.8831" y="-67.8" font-family="Times,serif" font-size="14.00" fill="#000000">2</text>
</g>
<!-- 12&#45;&gt;22 -->
<g id="edge3" class="edge">
<title>12&#45;&gt;22</title>
<path fill="none" stroke="#000000" d="M482.3077,-72C497.093,-72 515.5814,-72 531.6724,-72"/>
<polygon fill="#000000" stroke="#000000" points="531.8372,-75.5001 541.8372,-72 531.8372,-68.5001 531.8372,-75.5001"/>
</g>
<!-- 22&#45;&gt;sbrk4 -->
<g id="edge4" class="edge">
<title>22&#45;&gt;sbrk4</title>
<path fill="none" stroke="#000000" d="M596.1515,-72C607.363,-72 620.7039,-72 633.5141,-72"/>
<polygon fill="#000000" stroke="#000000" points="633.623,-75.5001 643.623,-72 633.623,-68.5001 633.623,-75.5001"/>
</g>
<!-- hst3 -->
<g id="node7" class="node">
<title>hst3</title>
<polygon fill="#ffff00" stroke="#000000" points="254.3421,-138 193.0683,-138 193.0683,-114 254.3421,-114 266.3421,-126 254.3421,-138"/>
<text text-anchor="middle" x="229.7052" y="-121.8" font-family="Times,serif" font-size="14.00" fill="#000000">Heap start</text>
</g>
<!-- 01 -->
<g id="node9" class="node">
<title>01</title>
<polygon fill="#ffffff" stroke="#000000" points="368.1955,-144 314.1955,-144 314.1955,-108 368.1955,-108 368.1955,-144"/>
<text text-anchor="middle" x="341.1955" y="-121.8" font-family="Times,serif" font-size="14.00" fill="#000000">0</text>
</g>
<!-- hst3&#45;&gt;01 -->
<g id="edge5" class="edge">
<title>hst3&#45;&gt;01</title>
<path fill="none" stroke="#000000" d="M266.5203,-126C278.4902,-126 291.7814,-126 303.7937,-126"/>
<polygon fill="#000000" stroke="#000000" points="303.9554,-129.5001 313.9553,-126 303.9553,-122.5001 303.9554,-129.5001"/>
</g>
<!-- sbrk3 -->
<g id="node8" class="node">
<title>sbrk3</title>
<ellipse fill="#40e0d0" stroke="#000000" cx="568.8831" cy="-126" rx="38.844" ry="18"/>
<text text-anchor="middle" x="568.8831" y="-121.8" font-family="Times,serif" font-size="14.00" fill="#000000">sbrk(0)</text>
</g>
<!-- 11 -->
<g id="node10" class="node">
<title>11</title>
<polygon fill="#ffffff" stroke="#000000" points="482.0393,-144 428.0393,-144 428.0393,-108 482.0393,-108 482.0393,-144"/>
<text text-anchor="middle" x="455.0393" y="-121.8" font-family="Times,serif" font-size="14.00" fill="#000000">1</text>
</g>
<!-- 01&#45;&gt;11 -->
<g id="edge6" class="edge">
<title>01&#45;&gt;11</title>
<path fill="none" stroke="#000000" d="M368.4639,-126C383.2492,-126 401.7376,-126 417.8286,-126"/>
<polygon fill="#000000" stroke="#000000" points="417.9934,-129.5001 427.9934,-126 417.9933,-122.5001 417.9934,-129.5001"/>
</g>
<!-- 11&#45;&gt;sbrk3 -->
<g id="edge7" class="edge">
<title>11&#45;&gt;sbrk3</title>
<path fill="none" stroke="#000000" d="M482.3077,-126C493.5192,-126 506.8601,-126 519.6703,-126"/>
<polygon fill="#000000" stroke="#000000" points="519.7792,-129.5001 529.7792,-126 519.7792,-122.5001 519.7792,-129.5001"/>
</g>
<!-- hst2 -->
<g id="node11" class="node">
<title>hst2</title>
<polygon fill="#ffff00" stroke="#000000" points="254.3421,-192 193.0683,-192 193.0683,-168 254.3421,-168 266.3421,-180 254.3421,-192"/>
<text text-anchor="middle" x="229.7052" y="-175.8" font-family="Times,serif" font-size="14.00" fill="#000000">Heap start</text>
</g>
<!-- 00 -->
<g id="node13" class="node">
<title>00</title>
<polygon fill="#ffffff" stroke="#000000" points="368.1955,-198 314.1955,-198 314.1955,-162 368.1955,-162 368.1955,-198"/>
<text text-anchor="middle" x="341.1955" y="-175.8" font-family="Times,serif" font-size="14.00" fill="#000000">0</text>
</g>
<!-- hst2&#45;&gt;00 -->
<g id="edge8" class="edge">
<title>hst2&#45;&gt;00</title>
<path fill="none" stroke="#000000" d="M266.5203,-180C278.4902,-180 291.7814,-180 303.7937,-180"/>
<polygon fill="#000000" stroke="#000000" points="303.9554,-183.5001 313.9553,-180 303.9553,-176.5001 303.9554,-183.5001"/>
</g>
<!-- sbrk2 -->
<g id="node12" class="node">
<title>sbrk2</title>
<ellipse fill="#40e0d0" stroke="#000000" cx="455.0393" cy="-180" rx="38.844" ry="18"/>
<text text-anchor="middle" x="455.0393" y="-175.8" font-family="Times,serif" font-size="14.00" fill="#000000">sbrk(0)</text>
</g>
<!-- 00&#45;&gt;sbrk2 -->
<g id="edge9" class="edge">
<title>00&#45;&gt;sbrk2</title>
<path fill="none" stroke="#000000" d="M368.4639,-180C379.6754,-180 393.0163,-180 405.8265,-180"/>
<polygon fill="#000000" stroke="#000000" points="405.9354,-183.5001 415.9354,-180 405.9354,-176.5001 405.9354,-183.5001"/>
</g>
<!-- hst1 -->
<g id="node14" class="node">
<title>hst1</title>
<polygon fill="#ffff00" stroke="#000000" points="254.3421,-246 193.0683,-246 193.0683,-222 254.3421,-222 266.3421,-234 254.3421,-246"/>
<text text-anchor="middle" x="229.7052" y="-229.8" font-family="Times,serif" font-size="14.00" fill="#000000">Heap start</text>
</g>
<!-- sbrk1 -->
<g id="node15" class="node">
<title>sbrk1</title>
<ellipse fill="#40e0d0" stroke="#000000" cx="341.1955" cy="-234" rx="38.844" ry="18"/>
<text text-anchor="middle" x="341.1955" y="-229.8" font-family="Times,serif" font-size="14.00" fill="#000000">sbrk(0)</text>
</g>
<!-- hst1&#45;&gt;sbrk1 -->
<g id="edge10" class="edge">
<title>hst1&#45;&gt;sbrk1</title>
<path fill="none" stroke="#000000" d="M266.5203,-234C274.637,-234 283.3612,-234 291.8823,-234"/>
<polygon fill="#000000" stroke="#000000" points="292.1209,-237.5001 302.1209,-234 292.1208,-230.5001 292.1209,-237.5001"/>
</g>
<!-- n1 -->
<g id="node16" class="node">
<title>n1</title>
<polygon fill="#ffffff" stroke="#000000" points="99.5684,-252 51.5684,-252 51.5684,-216 105.5684,-216 105.5684,-246 99.5684,-252"/>
<polyline fill="none" stroke="#000000" points="99.5684,-252 99.5684,-246 "/>
<polyline fill="none" stroke="#000000" points="105.5684,-246 99.5684,-246 "/>
<text text-anchor="middle" x="78.5684" y="-229.8" font-family="Times,serif" font-size="14.00" fill="#000000">Initial</text>
</g>
<!-- n1&#45;&gt;hst1 -->
<!-- n2 -->
<g id="node17" class="node">
<title>n2</title>
<polygon fill="#ffffff" stroke="#000000" points="151.2053,-198 -.0685,-198 -.0685,-162 157.2053,-162 157.2053,-192 151.2053,-198"/>
<polyline fill="none" stroke="#000000" points="151.2053,-198 151.2053,-192 "/>
<polyline fill="none" stroke="#000000" points="157.2053,-192 151.2053,-192 "/>
<text text-anchor="middle" x="78.5684" y="-175.8" font-family="Times,serif" font-size="14.00" fill="#000000">Scanned through 0 nodes</text>
</g>
<!-- n2&#45;&gt;hst2 -->
<!-- n3 -->
<g id="node18" class="node">
<title>n3</title>
<polygon fill="#ffffff" stroke="#000000" points="148.2609,-144 2.8759,-144 2.8759,-108 154.2609,-108 154.2609,-138 148.2609,-144"/>
<polyline fill="none" stroke="#000000" points="148.2609,-144 148.2609,-138 "/>
<polyline fill="none" stroke="#000000" points="154.2609,-138 148.2609,-138 "/>
<text text-anchor="middle" x="78.5684" y="-121.8" font-family="Times,serif" font-size="14.00" fill="#000000">Scanned through 1 node</text>
</g>
<!-- n3&#45;&gt;hst3 -->
<!-- n4 -->
<g id="node19" class="node">
<title>n4</title>
<polygon fill="#ffffff" stroke="#000000" points="151.2053,-90 -.0685,-90 -.0685,-54 157.2053,-54 157.2053,-84 151.2053,-90"/>
<polyline fill="none" stroke="#000000" points="151.2053,-90 151.2053,-84 "/>
<polyline fill="none" stroke="#000000" points="157.2053,-84 151.2053,-84 "/>
<text text-anchor="middle" x="78.5684" y="-67.8" font-family="Times,serif" font-size="14.00" fill="#000000">Scanned through 2 nodes</text>
</g>
<!-- n4&#45;&gt;hst4 -->
</g>
</svg>
