<?xml version="1.0" encoding="UTF-8" standalone="no"?>
<!DOCTYPE svg PUBLIC "-//W3C//DTD SVG 1.1//EN"
 "http://www.w3.org/Graphics/SVG/1.1/DTD/svg11.dtd">
<!-- Generated by graphviz version 2.40.1 (20161225.0304)
 -->
<!-- Title: %0 Pages: 1 -->
<svg width="735pt" height="44pt"
 viewBox="0.00 0.00 734.98 44.00" xmlns="http://www.w3.org/2000/svg" xmlns:xlink="http://www.w3.org/1999/xlink">
<g id="graph0" class="graph" transform="scale(1 1) rotate(0) translate(4 40)">
<title>%0</title>
<!-- ... -->
<g id="node1" class="node">
<title>...</title>
<text text-anchor="middle" x="406.1368" y="-13.8" font-family="Times,serif" font-size="14.00" fill="#000000">...</text>
</g>
<!-- 98 -->
<g id="node7" class="node">
<title>98</title>
<polygon fill="#ffffff" stroke="#000000" points="523.1368,-36 469.1368,-36 469.1368,0 523.1368,0 523.1368,-36"/>
<text text-anchor="middle" x="496.1368" y="-13.8" font-family="Times,serif" font-size="14.00" fill="#000000">98</text>
</g>
<!-- ...&#45;&gt;98 -->
<g id="edge5" class="edge">
<title>...&#45;&gt;98</title>
<path fill="none" stroke="#000000" d="M433.1398,-18C441.1645,-18 450.1033,-18 458.6677,-18"/>
<polygon fill="#000000" stroke="#000000" points="458.8419,-21.5001 468.8418,-18 458.8418,-14.5001 458.8419,-21.5001"/>
</g>
<!-- hst -->
<g id="node2" class="node">
<title>hst</title>
<polygon fill="#ffff00" stroke="#000000" points="61.2053,-30 -.0685,-30 -.0685,-6 61.2053,-6 73.2053,-18 61.2053,-30"/>
<text text-anchor="middle" x="36.5684" y="-13.8" font-family="Times,serif" font-size="14.00" fill="#000000">Heap start</text>
</g>
<!-- 0 -->
<g id="node4" class="node">
<title>0</title>
<polygon fill="#ffffff" stroke="#000000" points="163.1368,-36 109.1368,-36 109.1368,0 163.1368,0 163.1368,-36"/>
<text text-anchor="middle" x="136.1368" y="-13.8" font-family="Times,serif" font-size="14.00" fill="#000000">0</text>
</g>
<!-- hst&#45;&gt;0 -->
<g id="edge1" class="edge">
<title>hst&#45;&gt;0</title>
<path fill="none" stroke="#000000" d="M73.3611,-18C81.6187,-18 90.3891,-18 98.6737,-18"/>
<polygon fill="#000000" stroke="#000000" points="98.8326,-21.5001 108.8326,-18 98.8326,-14.5001 98.8326,-21.5001"/>
</g>
<!-- sbrk(0) -->
<g id="node3" class="node">
<title>sbrk(0)</title>
<ellipse fill="#40e0d0" stroke="#000000" cx="688.0587" cy="-18" rx="38.844" ry="18"/>
<text text-anchor="middle" x="688.0587" y="-13.8" font-family="Times,serif" font-size="14.00" fill="#000000">sbrk(0)</text>
</g>
<!-- 1 -->
<g id="node5" class="node">
<title>1</title>
<polygon fill="#ffffff" stroke="#000000" points="253.1368,-36 199.1368,-36 199.1368,0 253.1368,0 253.1368,-36"/>
<text text-anchor="middle" x="226.1368" y="-13.8" font-family="Times,serif" font-size="14.00" fill="#000000">1</text>
</g>
<!-- 0&#45;&gt;1 -->
<g id="edge2" class="edge">
<title>0&#45;&gt;1</title>
<path fill="none" stroke="#000000" d="M163.1398,-18C171.1645,-18 180.1033,-18 188.6677,-18"/>
<polygon fill="#000000" stroke="#000000" points="188.8419,-21.5001 198.8418,-18 188.8418,-14.5001 188.8419,-21.5001"/>
</g>
<!-- 2 -->
<g id="node6" class="node">
<title>2</title>
<polygon fill="#ffffff" stroke="#000000" points="343.1368,-36 289.1368,-36 289.1368,0 343.1368,0 343.1368,-36"/>
<text text-anchor="middle" x="316.1368" y="-13.8" font-family="Times,serif" font-size="14.00" fill="#000000">2</text>
</g>
<!-- 1&#45;&gt;2 -->
<g id="edge3" class="edge">
<title>1&#45;&gt;2</title>
<path fill="none" stroke="#000000" d="M253.1398,-18C261.1645,-18 270.1033,-18 278.6677,-18"/>
<polygon fill="#000000" stroke="#000000" points="278.8419,-21.5001 288.8418,-18 278.8418,-14.5001 278.8419,-21.5001"/>
</g>
<!-- 2&#45;&gt;... -->
<g id="edge4" class="edge">
<title>2&#45;&gt;...</title>
<path fill="none" stroke="#000000" d="M343.1398,-18C351.1645,-18 360.1033,-18 368.6677,-18"/>
<polygon fill="#000000" stroke="#000000" points="368.8419,-21.5001 378.8418,-18 368.8418,-14.5001 368.8419,-21.5001"/>
</g>
<!-- 99 -->
<g id="node8" class="node">
<title>99</title>
<polygon fill="#ffffff" stroke="#000000" points="613.1368,-36 559.1368,-36 559.1368,0 613.1368,0 613.1368,-36"/>
<text text-anchor="middle" x="586.1368" y="-13.8" font-family="Times,serif" font-size="14.00" fill="#000000">99</text>
</g>
<!-- 98&#45;&gt;99 -->
<g id="edge6" class="edge">
<title>98&#45;&gt;99</title>
<path fill="none" stroke="#000000" d="M523.1398,-18C531.1645,-18 540.1033,-18 548.6677,-18"/>
<polygon fill="#000000" stroke="#000000" points="548.8419,-21.5001 558.8418,-18 548.8418,-14.5001 548.8419,-21.5001"/>
</g>
<!-- 99&#45;&gt;sbrk(0) -->
<g id="edge7" class="edge">
<title>99&#45;&gt;sbrk(0)</title>
<path fill="none" stroke="#000000" d="M613.1824,-18C621.0665,-18 629.9383,-18 638.7445,-18"/>
<polygon fill="#000000" stroke="#000000" points="638.9889,-21.5001 648.9889,-18 638.9889,-14.5001 638.9889,-21.5001"/>
</g>
</g>
</svg>
