<?xml version="1.0" encoding="UTF-8" standalone="no"?>
<!DOCTYPE svg PUBLIC "-//W3C//DTD SVG 1.1//EN"
 "http://www.w3.org/Graphics/SVG/1.1/DTD/svg11.dtd">
<!-- Generated by graphviz version 2.40.1 (20161225.0304)
 -->
<!-- Title: %0 Pages: 1 -->
<svg width="943pt" height="44pt"
 viewBox="0.00 0.00 943.07 44.00" xmlns="http://www.w3.org/2000/svg" xmlns:xlink="http://www.w3.org/1999/xlink">
<g id="graph0" class="graph" transform="scale(1 1) rotate(0) translate(4 40)">
<title>%0</title>
<!-- d1 -->
<g id="node1" class="node">
<title>d1</title>
<text text-anchor="middle" x="344.2224" y="-13.8" font-family="Times,serif" font-size="14.00" fill="#000000">...</text>
</g>
<!-- 94 -->
<g id="node8" class="node">
<title>94</title>
<polygon fill="#ffffff" stroke="#000000" points="461.2224,-36 407.2224,-36 407.2224,0 461.2224,0 461.2224,-36"/>
<text text-anchor="middle" x="434.2224" y="-13.8" font-family="Times,serif" font-size="14.00" fill="#000000">94</text>
</g>
<!-- d1&#45;&gt;94 -->
<g id="edge4" class="edge">
<title>d1&#45;&gt;94</title>
<path fill="none" stroke="#000000" d="M371.2254,-18C379.2501,-18 388.1889,-18 396.7533,-18"/>
<polygon fill="#000000" stroke="#000000" points="396.9275,-21.5001 406.9274,-18 396.9274,-14.5001 396.9275,-21.5001"/>
</g>
<!-- d2 -->
<g id="node2" class="node">
<title>d2</title>
<text text-anchor="middle" x="704.2224" y="-13.8" font-family="Times,serif" font-size="14.00" fill="#000000">...</text>
</g>
<!-- 99 -->
<g id="node10" class="node">
<title>99</title>
<polygon fill="#ffffff" stroke="#000000" points="821.2224,-36 767.2224,-36 767.2224,0 821.2224,0 821.2224,-36"/>
<text text-anchor="middle" x="794.2224" y="-13.8" font-family="Times,serif" font-size="14.00" fill="#000000">99</text>
</g>
<!-- d2&#45;&gt;99 -->
<g id="edge8" class="edge">
<title>d2&#45;&gt;99</title>
<path fill="none" stroke="#000000" d="M731.2254,-18C739.2501,-18 748.1889,-18 756.7533,-18"/>
<polygon fill="#000000" stroke="#000000" points="756.9275,-21.5001 766.9274,-18 756.9274,-14.5001 756.9275,-21.5001"/>
</g>
<!-- sbrk(0) -->
<g id="node3" class="node">
<title>sbrk(0)</title>
<ellipse fill="#40e0d0" stroke="#000000" cx="896.1443" cy="-18" rx="38.844" ry="18"/>
<text text-anchor="middle" x="896.1443" y="-13.8" font-family="Times,serif" font-size="14.00" fill="#000000">sbrk(0)</text>
</g>
<!-- hst -->
<g id="node4" class="node">
<title>hst</title>
<polygon fill="#ffff00" stroke="#000000" points="61.2053,-30 -.0685,-30 -.0685,-6 61.2053,-6 73.2053,-18 61.2053,-30"/>
<text text-anchor="middle" x="36.5684" y="-13.8" font-family="Times,serif" font-size="14.00" fill="#000000">Heap start</text>
</g>
<!-- 0 -->
<g id="node5" class="node">
<title>0</title>
<polygon fill="#00ff00" stroke="#000000" points="191.2652,-36 109.094,-36 109.094,0 191.2652,0 191.2652,-36"/>
<text text-anchor="middle" x="150.1796" y="-13.8" font-family="Times,serif" font-size="14.00" fill="#000000">0 (size 90k)</text>
</g>
<!-- hst&#45;&gt;0 -->
<g id="edge1" class="edge">
<title>hst&#45;&gt;0</title>
<path fill="none" stroke="#000000" d="M73.1411,-18C81.3468,-18 90.2005,-18 98.881,-18"/>
<polygon fill="#000000" stroke="#000000" points="98.9425,-21.5001 108.9424,-18 98.9424,-14.5001 98.9425,-21.5001"/>
</g>
<!-- 90 -->
<g id="node7" class="node">
<title>90</title>
<polygon fill="#ffffff" stroke="#000000" points="281.2224,-36 227.2224,-36 227.2224,0 281.2224,0 281.2224,-36"/>
<text text-anchor="middle" x="254.2224" y="-13.8" font-family="Times,serif" font-size="14.00" fill="#000000">90</text>
</g>
<!-- 0&#45;&gt;90 -->
<g id="edge2" class="edge">
<title>0&#45;&gt;90</title>
<path fill="none" stroke="#000000" d="M191.3001,-18C199.7669,-18 208.637,-18 216.958,-18"/>
<polygon fill="#000000" stroke="#000000" points="217.1326,-21.5001 227.1326,-18 217.1325,-14.5001 217.1326,-21.5001"/>
</g>
<!-- 95 -->
<g id="node6" class="node">
<title>95</title>
<polygon fill="#00ff00" stroke="#000000" points="551.2224,-36 497.2224,-36 497.2224,0 551.2224,0 551.2224,-36"/>
<text text-anchor="middle" x="524.2224" y="-13.8" font-family="Times,serif" font-size="14.00" fill="#000000">95</text>
</g>
<!-- 96 -->
<g id="node9" class="node">
<title>96</title>
<polygon fill="#ffffff" stroke="#000000" points="641.2224,-36 587.2224,-36 587.2224,0 641.2224,0 641.2224,-36"/>
<text text-anchor="middle" x="614.2224" y="-13.8" font-family="Times,serif" font-size="14.00" fill="#000000">96</text>
</g>
<!-- 95&#45;&gt;96 -->
<g id="edge6" class="edge">
<title>95&#45;&gt;96</title>
<path fill="none" stroke="#000000" d="M551.2254,-18C559.2501,-18 568.1889,-18 576.7533,-18"/>
<polygon fill="#000000" stroke="#000000" points="576.9275,-21.5001 586.9274,-18 576.9274,-14.5001 576.9275,-21.5001"/>
</g>
<!-- 90&#45;&gt;d1 -->
<g id="edge3" class="edge">
<title>90&#45;&gt;d1</title>
<path fill="none" stroke="#000000" d="M281.2254,-18C289.2501,-18 298.1889,-18 306.7533,-18"/>
<polygon fill="#000000" stroke="#000000" points="306.9275,-21.5001 316.9274,-18 306.9274,-14.5001 306.9275,-21.5001"/>
</g>
<!-- 94&#45;&gt;95 -->
<g id="edge5" class="edge">
<title>94&#45;&gt;95</title>
<path fill="none" stroke="#000000" d="M461.2254,-18C469.2501,-18 478.1889,-18 486.7533,-18"/>
<polygon fill="#000000" stroke="#000000" points="486.9275,-21.5001 496.9274,-18 486.9274,-14.5001 486.9275,-21.5001"/>
</g>
<!-- 96&#45;&gt;d2 -->
<g id="edge7" class="edge">
<title>96&#45;&gt;d2</title>
<path fill="none" stroke="#000000" d="M641.2254,-18C649.2501,-18 658.1889,-18 666.7533,-18"/>
<polygon fill="#000000" stroke="#000000" points="666.9275,-21.5001 676.9274,-18 666.9274,-14.5001 666.9275,-21.5001"/>
</g>
<!-- 99&#45;&gt;sbrk(0) -->
<g id="edge9" class="edge">
<title>99&#45;&gt;sbrk(0)</title>
<path fill="none" stroke="#000000" d="M821.268,-18C829.1521,-18 838.0239,-18 846.8301,-18"/>
<polygon fill="#000000" stroke="#000000" points="847.0745,-21.5001 857.0745,-18 847.0745,-14.5001 847.0745,-21.5001"/>
</g>
</g>
</svg>
