<?xml version="1.0" encoding="UTF-8" standalone="no"?>
<!DOCTYPE svg PUBLIC "-//W3C//DTD SVG 1.1//EN"
 "http://www.w3.org/Graphics/SVG/1.1/DTD/svg11.dtd">
<!-- Generated by graphviz version 2.40.1 (20161225.0304)
 -->
<!-- Title: %0 Pages: 1 -->
<svg width="1038pt" height="98pt"
 viewBox="0.00 0.00 1038.40 98.00" xmlns="http://www.w3.org/2000/svg" xmlns:xlink="http://www.w3.org/1999/xlink">
<g id="graph0" class="graph" transform="scale(1 1) rotate(0) translate(4 94)">
<title>%0</title>
<!-- d1 -->
<g id="node1" class="node">
<title>d1</title>
<text text-anchor="middle" x="344.2224" y="-13.8" font-family="Times,serif" font-size="14.00" fill="#000000">...</text>
</g>
<!-- 94 -->
<g id="node9" class="node">
<title>94</title>
<polygon fill="#ffffff" stroke="#000000" points="461.2224,-36 407.2224,-36 407.2224,0 461.2224,0 461.2224,-36"/>
<text text-anchor="middle" x="434.2224" y="-13.8" font-family="Times,serif" font-size="14.00" fill="#000000">94</text>
</g>
<!-- d1&#45;&gt;94 -->
<g id="edge6" class="edge">
<title>d1&#45;&gt;94</title>
<path fill="none" stroke="#000000" d="M371.2254,-18C379.2501,-18 388.1889,-18 396.7533,-18"/>
<polygon fill="#000000" stroke="#000000" points="396.9275,-21.5001 406.9274,-18 396.9274,-14.5001 396.9275,-21.5001"/>
</g>
<!-- d2 -->
<g id="node2" class="node">
<title>d2</title>
<text text-anchor="middle" x="799.5528" y="-13.8" font-family="Times,serif" font-size="14.00" fill="#000000">...</text>
</g>
<!-- 99 -->
<g id="node11" class="node">
<title>99</title>
<polygon fill="#ffffff" stroke="#000000" points="916.5528,-36 862.5528,-36 862.5528,0 916.5528,0 916.5528,-36"/>
<text text-anchor="middle" x="889.5528" y="-13.8" font-family="Times,serif" font-size="14.00" fill="#000000">99</text>
</g>
<!-- d2&#45;&gt;99 -->
<g id="edge10" class="edge">
<title>d2&#45;&gt;99</title>
<path fill="none" stroke="#000000" d="M826.5558,-18C834.5805,-18 843.5193,-18 852.0837,-18"/>
<polygon fill="#000000" stroke="#000000" points="852.2579,-21.5001 862.2578,-18 852.2578,-14.5001 852.2579,-21.5001"/>
</g>
<!-- hst -->
<g id="node3" class="node">
<title>hst</title>
<polygon fill="#ffff00" stroke="#000000" points="61.2053,-30 -.0685,-30 -.0685,-6 61.2053,-6 73.2053,-18 61.2053,-30"/>
<text text-anchor="middle" x="36.5684" y="-13.8" font-family="Times,serif" font-size="14.00" fill="#000000">Heap start</text>
</g>
<!-- 0 -->
<g id="node4" class="node">
<title>0</title>
<polygon fill="#00ff00" stroke="#000000" points="191.2652,-36 109.094,-36 109.094,0 191.2652,0 191.2652,-36"/>
<text text-anchor="middle" x="150.1796" y="-13.8" font-family="Times,serif" font-size="14.00" fill="#000000">0 (size 90k)</text>
</g>
<!-- hst&#45;&gt;0 -->
<g id="edge1" class="edge">
<title>hst&#45;&gt;0</title>
<path fill="none" stroke="#000000" d="M73.1411,-11.6459C81.3468,-11.3114 90.2005,-11.1889 98.881,-11.2783"/>
<polygon fill="#000000" stroke="#000000" points="98.8741,-14.7787 108.9424,-11.4806 99.0149,-7.7802 98.8741,-14.7787"/>
</g>
<!-- hst&#45;&gt;0 -->
<g id="edge3" class="edge">
<title>hst&#45;&gt;0</title>
<path fill="none" stroke="#000000" d="M73.1411,-24.3541C81.3468,-24.6886 90.2005,-24.8111 98.881,-24.7217"/>
<polygon fill="#000000" stroke="#000000" points="99.0149,-28.2198 108.9424,-24.5194 98.8741,-21.2213 99.0149,-28.2198"/>
</g>
<!-- 90 -->
<g id="node8" class="node">
<title>90</title>
<polygon fill="#ffffff" stroke="#000000" points="281.2224,-36 227.2224,-36 227.2224,0 281.2224,0 281.2224,-36"/>
<text text-anchor="middle" x="254.2224" y="-13.8" font-family="Times,serif" font-size="14.00" fill="#000000">90</text>
</g>
<!-- 0&#45;&gt;90 -->
<g id="edge4" class="edge">
<title>0&#45;&gt;90</title>
<path fill="none" stroke="#000000" d="M191.3001,-18C199.7669,-18 208.637,-18 216.958,-18"/>
<polygon fill="#000000" stroke="#000000" points="217.1326,-21.5001 227.1326,-18 217.1325,-14.5001 217.1326,-21.5001"/>
</g>
<!-- sbrk(0) -->
<g id="node5" class="node">
<title>sbrk(0)</title>
<ellipse fill="#40e0d0" stroke="#000000" cx="991.4747" cy="-18" rx="38.844" ry="18"/>
<text text-anchor="middle" x="991.4747" y="-13.8" font-family="Times,serif" font-size="14.00" fill="#000000">sbrk(0)</text>
</g>
<!-- 95 -->
<g id="node6" class="node">
<title>95</title>
<polygon fill="#ffffff" stroke="#000000" points="598.8876,-36 544.8876,-36 544.8876,0 598.8876,0 598.8876,-36"/>
<text text-anchor="middle" x="571.8876" y="-13.8" font-family="Times,serif" font-size="14.00" fill="#000000">95</text>
</g>
<!-- 96 -->
<g id="node10" class="node">
<title>96</title>
<polygon fill="#ffffff" stroke="#000000" points="736.5528,-36 682.5528,-36 682.5528,0 736.5528,0 736.5528,-36"/>
<text text-anchor="middle" x="709.5528" y="-13.8" font-family="Times,serif" font-size="14.00" fill="#000000">96</text>
</g>
<!-- 95&#45;&gt;96 -->
<g id="edge8" class="edge">
<title>95&#45;&gt;96</title>
<path fill="none" stroke="#000000" d="M599.0858,-18C620.015,-18 649.1702,-18 672.2733,-18"/>
<polygon fill="#000000" stroke="#000000" points="672.4111,-21.5001 682.4111,-18 672.4111,-14.5001 672.4111,-21.5001"/>
</g>
<!-- nn -->
<g id="node7" class="node">
<title>nn</title>
<polygon fill="#40e0d0" stroke="#000000" points="640.7184,-90 497.0568,-90 497.0568,-54 646.7184,-54 646.7184,-84 640.7184,-90"/>
<polyline fill="none" stroke="#000000" points="640.7184,-90 640.7184,-84 "/>
<polyline fill="none" stroke="#000000" points="646.7184,-84 640.7184,-84 "/>
<text text-anchor="middle" x="571.8876" y="-67.8" font-family="Times,serif" font-size="14.00" fill="#000000">Newly&#45;malloc()ed node</text>
</g>
<!-- nn&#45;&gt;95 -->
<g id="edge2" class="edge">
<title>nn&#45;&gt;95</title>
<path fill="none" stroke="#000000" d="M571.8876,-53.7902C571.8876,-51.3082 571.8876,-48.8262 571.8876,-46.3443"/>
<polygon fill="#000000" stroke="#000000" points="575.3877,-46.1406 571.8876,-36.1406 568.3877,-46.1407 575.3877,-46.1406"/>
</g>
<!-- 90&#45;&gt;d1 -->
<g id="edge5" class="edge">
<title>90&#45;&gt;d1</title>
<path fill="none" stroke="#000000" d="M281.2254,-18C289.2501,-18 298.1889,-18 306.7533,-18"/>
<polygon fill="#000000" stroke="#000000" points="306.9275,-21.5001 316.9274,-18 306.9274,-14.5001 306.9275,-21.5001"/>
</g>
<!-- 94&#45;&gt;95 -->
<g id="edge7" class="edge">
<title>94&#45;&gt;95</title>
<path fill="none" stroke="#000000" d="M461.4206,-18C482.3498,-18 511.505,-18 534.6081,-18"/>
<polygon fill="#000000" stroke="#000000" points="534.7459,-21.5001 544.7459,-18 534.7459,-14.5001 534.7459,-21.5001"/>
</g>
<!-- 96&#45;&gt;d2 -->
<g id="edge9" class="edge">
<title>96&#45;&gt;d2</title>
<path fill="none" stroke="#000000" d="M736.5558,-18C744.5805,-18 753.5193,-18 762.0837,-18"/>
<polygon fill="#000000" stroke="#000000" points="762.2579,-21.5001 772.2578,-18 762.2578,-14.5001 762.2579,-21.5001"/>
</g>
<!-- 99&#45;&gt;sbrk(0) -->
<g id="edge11" class="edge">
<title>99&#45;&gt;sbrk(0)</title>
<path fill="none" stroke="#000000" d="M916.5984,-18C924.4825,-18 933.3543,-18 942.1605,-18"/>
<polygon fill="#000000" stroke="#000000" points="942.4049,-21.5001 952.4049,-18 942.4049,-14.5001 942.4049,-21.5001"/>
</g>
</g>
</svg>
