<?xml version="1.0" encoding="UTF-8" standalone="no"?>
<!DOCTYPE svg PUBLIC "-//W3C//DTD SVG 1.1//EN"
 "http://www.w3.org/Graphics/SVG/1.1/DTD/svg11.dtd">
<!-- Generated by graphviz version 2.40.1 (20161225.0304)
 -->
<!-- Title: %0 Pages: 1 -->
<svg width="1356pt" height="638pt"
 viewBox="0.00 0.00 1356.00 638.03" xmlns="http://www.w3.org/2000/svg" xmlns:xlink="http://www.w3.org/1999/xlink">
<g id="graph0" class="graph" transform="scale(1 1) rotate(0) translate(4 634.0313)">
<title>%0</title>
<g id="clust1" class="cluster">
<title>cluster_blog</title>
<polygon fill="#add8e6" stroke="#add8e6" points="95,-180.4 95,-257.2 179,-257.2 179,-180.4 95,-180.4"/>
<text text-anchor="middle" x="137" y="-240.6" font-family="Times,serif" font-size="14.00" fill="#000000">plugin&#45;blog</text>
</g>
<g id="clust2" class="cluster">
<title>cluster_tagging</title>
<polygon fill="#add8e6" stroke="#add8e6" points="639,-92.8 639,-169.6 737,-169.6 737,-92.8 639,-92.8"/>
<text text-anchor="middle" x="688" y="-153" font-family="Times,serif" font-size="14.00" fill="#000000">plugin&#45;tagging</text>
</g>
<g id="clust3" class="cluster">
<title>cluster_project</title>
<polygon fill="#fffacd" stroke="#fffacd" points="260,-177.6 260,-348.2156 468,-348.2156 468,-177.6 260,-177.6"/>
<text text-anchor="middle" x="364" y="-331.6156" font-family="Times,serif" font-size="14.00" fill="#000000">transformer&#45;project</text>
</g>
<g id="clust4" class="cluster">
<title>cluster_jupyter_md</title>
<polygon fill="#fffacd" stroke="#fffacd" points="215,-431.6313 215,-514.0313 417,-514.0313 417,-431.6313 215,-431.6313"/>
<text text-anchor="middle" x="316" y="-497.4313" font-family="Times,serif" font-size="14.00" fill="#000000">transformer&#45;notebook&#45;markdown</text>
</g>
<g id="clust5" class="cluster">
<title>cluster_md_to_blog</title>
<polygon fill="#fffacd" stroke="#fffacd" points="8,-268.6156 8,-351.0156 252,-351.0156 252,-268.6156 8,-268.6156"/>
<text text-anchor="middle" x="130" y="-334.4156" font-family="Times,serif" font-size="14.00" fill="#000000">transformer&#45;markdown&#45;post</text>
</g>
<g id="clust6" class="cluster">
<title>cluster_lang_tags</title>
<polygon fill="#66cdaa" stroke="#66cdaa" points="1132,-177.6 1132,-359.6313 1340,-359.6313 1340,-177.6 1132,-177.6"/>
<text text-anchor="middle" x="1236" y="-343.0313" font-family="Times,serif" font-size="14.00" fill="#000000">source&#45;lang&#45;tags</text>
</g>
<g id="clust7" class="cluster">
<title>cluster_user_tags</title>
<polygon fill="#fffacd" stroke="#fffacd" points="908,-177.6 908,-260 1116,-260 1116,-177.6 908,-177.6"/>
<text text-anchor="middle" x="1012" y="-243.4" font-family="Times,serif" font-size="14.00" fill="#000000">transformer&#45;user&#45;tags</text>
</g>
<g id="clust8" class="cluster">
<title>cluster_education</title>
<polygon fill="#fffacd" stroke="#fffacd" points="476,-177.6 476,-348.2156 684,-348.2156 684,-177.6 476,-177.6"/>
<text text-anchor="middle" x="580" y="-331.6156" font-family="Times,serif" font-size="14.00" fill="#000000">transformer&#45;education</text>
</g>
<g id="clust9" class="cluster">
<title>cluster_work</title>
<polygon fill="#fffacd" stroke="#fffacd" points="692,-177.6 692,-348.2156 900,-348.2156 900,-177.6 692,-177.6"/>
<text text-anchor="middle" x="796" y="-331.6156" font-family="Times,serif" font-size="14.00" fill="#000000">transformer&#45;work</text>
</g>
<g id="clust10" class="cluster">
<title>cluster_skills</title>
<polygon fill="#fffacd" stroke="#fffacd" points="938,-271.4156 938,-348.2156 1124,-348.2156 1124,-271.4156 938,-271.4156"/>
<text text-anchor="middle" x="1031" y="-331.6156" font-family="Times,serif" font-size="14.00" fill="#000000">transformer&#45;skills</text>
</g>
<g id="clust11" class="cluster">
<title>cluster_pages</title>
<polygon fill="transparent" stroke="#000000" points="121,-8 121,-84.8 358,-84.8 358,-8 121,-8"/>
<text text-anchor="middle" x="239.5" y="-68.2" font-family="Times,serif" font-size="14.00" fill="#000000">Pages</text>
</g>
<!-- file -->
<g id="node1" class="node">
<title>file</title>
<polygon fill="none" stroke="#000000" points="463,-630.0313 460,-634.0313 439,-634.0313 436,-630.0313 409,-630.0313 409,-594.0313 463,-594.0313 463,-630.0313"/>
<text text-anchor="middle" x="436" y="-607.8313" font-family="Times,serif" font-size="14.00" fill="#000000">File</text>
</g>
<!-- yaml -->
<g id="node2" class="node">
<title>yaml</title>
<polygon fill="none" stroke="#000000" points="824.7108,-403.6313 767.2892,-403.6313 767.2892,-367.6313 824.7108,-367.6313 824.7108,-403.6313"/>
<text text-anchor="middle" x="796" y="-381.4313" font-family="Times,serif" font-size="14.00" fill="#000000">YAML</text>
</g>
<!-- file&#45;&gt;yaml -->
<g id="edge1" class="edge">
<title>file&#45;&gt;yaml</title>
<path fill="none" stroke="#000000" d="M463.0585,-595.0145C526.6461,-555.0249 685.7013,-454.9969 758.5266,-409.1979"/>
<polygon fill="#000000" stroke="#000000" points="760.7814,-411.9145 767.3833,-403.628 757.0549,-405.9889 760.7814,-411.9145"/>
</g>
<!-- md -->
<g id="node3" class="node">
<title>md</title>
<polygon fill="none" stroke="#000000" points="390.7437,-403.6313 269.2563,-403.6313 269.2563,-367.6313 390.7437,-367.6313 390.7437,-403.6313"/>
<text text-anchor="middle" x="330" y="-381.4313" font-family="Times,serif" font-size="14.00" fill="#000000">MarkdownRemark</text>
</g>
<!-- file&#45;&gt;md -->
<g id="edge2" class="edge">
<title>file&#45;&gt;md</title>
<path fill="none" stroke="#000000" d="M439.8792,-593.772C446.2059,-558.9251 454.8902,-481.9354 421,-431.6313 414.7903,-422.4141 406.1534,-414.9512 396.6533,-408.9365"/>
<polygon fill="#000000" stroke="#000000" points="398.1454,-405.7573 387.7308,-403.8112 394.6586,-411.8272 398.1454,-405.7573"/>
</g>
<!-- ipynb -->
<g id="node4" class="node">
<title>ipynb</title>
<polygon fill="none" stroke="#000000" points="383,-558.0313 329,-558.0313 329,-522.0313 383,-522.0313 383,-558.0313"/>
<text text-anchor="middle" x="356" y="-535.8313" font-family="Times,serif" font-size="14.00" fill="#000000">ipynb</text>
</g>
<!-- file&#45;&gt;ipynb -->
<g id="edge3" class="edge">
<title>file&#45;&gt;ipynb</title>
<path fill="none" stroke="#000000" d="M415.8126,-593.8626C406.1486,-585.165 394.4204,-574.6096 383.9184,-565.1578"/>
<polygon fill="#000000" stroke="#000000" points="385.9553,-562.2823 376.1809,-558.1941 381.2725,-567.4853 385.9553,-562.2823"/>
</g>
<!-- user_tags -->
<g id="node13" class="node">
<title>user_tags</title>
<polygon fill="none" stroke="#000000" points="1108.3704,-227.0019 915.6296,-227.0019 915.6296,-185.7981 1108.3704,-185.7981 1108.3704,-227.0019"/>
<text text-anchor="middle" x="1012" y="-210.6" font-family="Times,serif" font-size="14.00" fill="#000000">UserTag</text>
<text text-anchor="middle" x="1012" y="-193.8" font-family="Times,serif" font-size="14.00" fill="#000000">(application/prs.astrid&#45;tech&#45;tag)</text>
</g>
<!-- yaml&#45;&gt;user_tags -->
<g id="edge13" class="edge">
<title>yaml&#45;&gt;user_tags</title>
<path fill="none" stroke="#000000" d="M824.6064,-381.9359C852.5687,-377.7765 892.5557,-370.1931 904,-359.6313 935.4908,-330.5687 909.4735,-303.1391 934,-268 943.3167,-254.6519 956.3588,-242.7765 969.1156,-233.1011"/>
<polygon fill="#000000" stroke="#000000" points="971.3849,-235.7785 977.4153,-227.0672 967.2687,-230.1165 971.3849,-235.7785"/>
</g>
<!-- school -->
<g id="node14" class="node">
<title>school</title>
<polygon fill="none" stroke="#000000" points="676.3879,-315.4156 621.6121,-315.4156 621.6121,-279.4156 676.3879,-279.4156 676.3879,-315.4156"/>
<text text-anchor="middle" x="649" y="-293.2156" font-family="Times,serif" font-size="14.00" fill="#000000">School</text>
</g>
<!-- yaml&#45;&gt;school -->
<g id="edge21" class="edge">
<title>yaml&#45;&gt;school</title>
<path fill="none" stroke="#000000" d="M767.3699,-381.249C739.8256,-376.5938 700.5641,-368.6686 688,-359.6313 675.8772,-350.9114 666.6829,-337.1449 660.2753,-324.7761"/>
<polygon fill="#000000" stroke="#000000" points="663.3996,-323.1967 655.9162,-315.6967 657.0891,-326.2264 663.3996,-323.1967"/>
</g>
<!-- course -->
<g id="node15" class="node">
<title>course</title>
<polygon fill="none" stroke="#000000" points="603.6575,-315.4156 548.3425,-315.4156 548.3425,-279.4156 603.6575,-279.4156 603.6575,-315.4156"/>
<text text-anchor="middle" x="576" y="-293.2156" font-family="Times,serif" font-size="14.00" fill="#000000">Course</text>
</g>
<!-- yaml&#45;&gt;course -->
<g id="edge15" class="edge">
<title>yaml&#45;&gt;course</title>
<path fill="none" stroke="#000000" d="M767.2795,-384.5387C722.2708,-382.3383 637.7028,-376.0892 613,-359.6313 600.5822,-351.358 591.724,-337.3756 585.7947,-324.7595"/>
<polygon fill="#000000" stroke="#000000" points="588.9797,-323.306 581.8211,-315.4955 582.5465,-326.0655 588.9797,-323.306"/>
</g>
<!-- work -->
<g id="node17" class="node">
<title>work</title>
<polygon fill="none" stroke="#000000" points="823,-315.4156 769,-315.4156 769,-279.4156 823,-279.4156 823,-315.4156"/>
<text text-anchor="middle" x="796" y="-293.2156" font-family="Times,serif" font-size="14.00" fill="#000000">Work</text>
</g>
<!-- yaml&#45;&gt;work -->
<g id="edge18" class="edge">
<title>yaml&#45;&gt;work</title>
<path fill="none" stroke="#000000" d="M796,-367.3529C796,-355.4066 796,-339.557 796,-325.9672"/>
<polygon fill="#000000" stroke="#000000" points="799.5001,-325.6705 796,-315.6706 792.5001,-325.6706 799.5001,-325.6705"/>
</g>
<!-- skill_level -->
<g id="node19" class="node">
<title>skill_level</title>
<polygon fill="none" stroke="#000000" points="1116.3275,-315.4156 1041.6725,-315.4156 1041.6725,-279.4156 1116.3275,-279.4156 1116.3275,-315.4156"/>
<text text-anchor="middle" x="1079" y="-293.2156" font-family="Times,serif" font-size="14.00" fill="#000000">SkillLevel</text>
</g>
<!-- yaml&#45;&gt;skill_level -->
<g id="edge22" class="edge">
<title>yaml&#45;&gt;skill_level</title>
<path fill="none" stroke="#000000" d="M824.696,-383.7743C883.8423,-379.7611 1015.2811,-369.8165 1033,-359.6313 1047.0572,-351.5509 1058.0847,-337.2591 1065.8146,-324.4097"/>
<polygon fill="#000000" stroke="#000000" points="1069.0186,-325.8518 1070.8564,-315.4176 1062.9128,-322.4283 1069.0186,-325.8518"/>
</g>
<!-- skill_group -->
<g id="node20" class="node">
<title>skill_group</title>
<polygon fill="none" stroke="#000000" points="1024.2219,-315.4156 945.7781,-315.4156 945.7781,-279.4156 1024.2219,-279.4156 1024.2219,-315.4156"/>
<text text-anchor="middle" x="985" y="-293.2156" font-family="Times,serif" font-size="14.00" fill="#000000">SkillGroup</text>
</g>
<!-- yaml&#45;&gt;skill_group -->
<g id="edge23" class="edge">
<title>yaml&#45;&gt;skill_group</title>
<path fill="none" stroke="#000000" d="M824.8472,-382.392C859.2026,-378.1446 914.1842,-369.9995 932,-359.6313 946.747,-351.049 959.334,-336.8019 968.5363,-324.1055"/>
<polygon fill="#000000" stroke="#000000" points="971.5675,-325.8746 974.3514,-315.652 965.8003,-321.9073 971.5675,-325.8746"/>
</g>
<!-- project -->
<g id="node7" class="node">
<title>project</title>
<polygon fill="none" stroke="#000000" points="357.6547,-315.4156 302.3453,-315.4156 302.3453,-279.4156 357.6547,-279.4156 357.6547,-315.4156"/>
<text text-anchor="middle" x="330" y="-293.2156" font-family="Times,serif" font-size="14.00" fill="#000000">Project</text>
</g>
<!-- md&#45;&gt;project -->
<g id="edge10" class="edge">
<title>md&#45;&gt;project</title>
<path fill="none" stroke="#000000" d="M330,-367.3529C330,-355.4066 330,-339.557 330,-325.9672"/>
<polygon fill="#000000" stroke="#000000" points="333.5001,-325.6705 330,-315.6706 326.5001,-325.6706 333.5001,-325.6705"/>
</g>
<!-- mdblog -->
<g id="node10" class="node">
<title>mdblog</title>
<polygon fill="none" stroke="#000000" points="244.1519,-318.0175 15.8481,-318.0175 15.8481,-276.8137 244.1519,-276.8137 244.1519,-318.0175"/>
<text text-anchor="middle" x="130" y="-301.6156" font-family="Times,serif" font-size="14.00" fill="#000000">MarkdownBlogPost</text>
<text text-anchor="middle" x="130" y="-284.8156" font-family="Times,serif" font-size="14.00" fill="#000000">(application/prs.astrid&#45;tech&#45;blog&#45;post)</text>
</g>
<!-- md&#45;&gt;mdblog -->
<g id="edge6" class="edge">
<title>md&#45;&gt;mdblog</title>
<path fill="none" stroke="#000000" d="M275.9549,-367.4971C269.1889,-364.9767 262.4012,-362.3246 256,-359.6313 229.6964,-348.564 201.124,-334.6211 177.8479,-322.7412"/>
<polygon fill="#000000" stroke="#000000" points="179.3703,-319.5885 168.8763,-318.1309 176.1709,-325.8146 179.3703,-319.5885"/>
</g>
<!-- jupyter_md -->
<g id="node9" class="node">
<title>jupyter_md</title>
<polygon fill="none" stroke="#000000" points="408.2394,-481.0332 251.7606,-481.0332 251.7606,-439.8294 408.2394,-439.8294 408.2394,-481.0332"/>
<text text-anchor="middle" x="330" y="-464.6313" font-family="Times,serif" font-size="14.00" fill="#000000">JupyterMarkdownBridge</text>
<text text-anchor="middle" x="330" y="-447.8313" font-family="Times,serif" font-size="14.00" fill="#000000">(text/markdown)</text>
</g>
<!-- ipynb&#45;&gt;jupyter_md -->
<g id="edge4" class="edge">
<title>ipynb&#45;&gt;jupyter_md</title>
<path fill="none" stroke="#000000" d="M350.1002,-521.9688C347.1027,-512.792 343.3788,-501.391 339.9538,-490.9053"/>
<polygon fill="#000000" stroke="#000000" points="343.2271,-489.6538 336.7951,-481.2348 336.5731,-491.8273 343.2271,-489.6538"/>
</g>
<!-- blog -->
<g id="node5" class="node">
<title>blog</title>
<polygon fill="none" stroke="#000000" points="170.8459,-224.4 103.1541,-224.4 103.1541,-188.4 170.8459,-188.4 170.8459,-224.4"/>
<text text-anchor="middle" x="137" y="-202.2" font-family="Times,serif" font-size="14.00" fill="#000000">BlogPost</text>
</g>
<!-- blog_page -->
<g id="node22" class="node">
<title>blog_page</title>
<polygon fill="none" stroke="#000000" points="184.6728,-52 141.3272,-52 141.3272,-56 129.3272,-56 129.3272,-16 184.6728,-16 184.6728,-52"/>
<polyline fill="none" stroke="#000000" points="129.3272,-52 141.3272,-52 "/>
<text text-anchor="middle" x="157" y="-29.8" font-family="Times,serif" font-size="14.00" fill="#000000">/blog/*</text>
</g>
<!-- blog&#45;&gt;blog_page -->
<g id="edge26" class="edge">
<title>blog&#45;&gt;blog_page</title>
<path fill="none" stroke="#000000" d="M139.1025,-188.276C142.5836,-158.2693 149.5701,-98.0458 153.7094,-62.3647"/>
<polygon fill="#000000" stroke="#000000" points="157.2198,-62.4766 154.8956,-52.1398 150.2665,-61.6699 157.2198,-62.4766"/>
</g>
<!-- tag -->
<g id="node6" class="node">
<title>tag</title>
<polygon fill="none" stroke="#000000" points="715,-136.8 661,-136.8 661,-100.8 715,-100.8 715,-136.8"/>
<text text-anchor="middle" x="688" y="-114.6" font-family="Times,serif" font-size="14.00" fill="#000000">Tag</text>
</g>
<!-- tag_page -->
<g id="node23" class="node">
<title>tag_page</title>
<polygon fill="none" stroke="#000000" points="350,-52 308,-52 308,-56 296,-56 296,-16 350,-16 350,-52"/>
<polyline fill="none" stroke="#000000" points="296,-52 308,-52 "/>
<text text-anchor="middle" x="323" y="-29.8" font-family="Times,serif" font-size="14.00" fill="#000000">/tags/*</text>
</g>
<!-- tag&#45;&gt;tag_page -->
<g id="edge25" class="edge">
<title>tag&#45;&gt;tag_page</title>
<path fill="none" stroke="#000000" d="M660.8639,-112.4955C596.3268,-97.5017 433.6013,-59.6959 360.0777,-42.6142"/>
<polygon fill="#000000" stroke="#000000" points="360.8474,-39.1999 350.3148,-40.346 359.2633,-46.0183 360.8474,-39.1999"/>
</g>
<!-- project_tag -->
<g id="node8" class="node">
<title>project_tag</title>
<polygon fill="none" stroke="#000000" points="460.3704,-227.0019 267.6296,-227.0019 267.6296,-185.7981 460.3704,-185.7981 460.3704,-227.0019"/>
<text text-anchor="middle" x="364" y="-210.6" font-family="Times,serif" font-size="14.00" fill="#000000">ProjectTag</text>
<text text-anchor="middle" x="364" y="-193.8" font-family="Times,serif" font-size="14.00" fill="#000000">(application/prs.astrid&#45;tech&#45;tag)</text>
</g>
<!-- project&#45;&gt;project_tag -->
<g id="edge11" class="edge">
<title>project&#45;&gt;project_tag</title>
<path fill="none" stroke="#000000" d="M336.8804,-278.9973C341.4085,-266.8758 347.4427,-250.7227 352.6694,-236.7312"/>
<polygon fill="#000000" stroke="#000000" points="356.0787,-237.6063 356.2995,-227.0138 349.5213,-235.1567 356.0787,-237.6063"/>
</g>
<!-- project_page -->
<g id="node21" class="node">
<title>project_page</title>
<polygon fill="none" stroke="#000000" points="277.5969,-52 214.4031,-52 214.4031,-56 202.4031,-56 202.4031,-16 277.5969,-16 277.5969,-52"/>
<polyline fill="none" stroke="#000000" points="202.4031,-52 214.4031,-52 "/>
<text text-anchor="middle" x="240" y="-29.8" font-family="Times,serif" font-size="14.00" fill="#000000">/projects/*</text>
</g>
<!-- project&#45;&gt;project_page -->
<g id="edge24" class="edge">
<title>project&#45;&gt;project_page</title>
<path fill="none" stroke="#000000" d="M302.2422,-289.9921C286.8736,-284.3702 268.9227,-274.9867 259,-260 218.7522,-199.2121 226.785,-108.132 234.3131,-62.3774"/>
<polygon fill="#000000" stroke="#000000" points="237.8028,-62.7413 236.0888,-52.2861 230.9087,-61.5282 237.8028,-62.7413"/>
</g>
<!-- project_tag&#45;&gt;tag -->
<g id="edge12" class="edge">
<title>project_tag&#45;&gt;tag</title>
<path fill="none" stroke="#000000" d="M440.3732,-185.7509C506.7091,-167.8157 599.9258,-142.6127 650.9781,-128.8096"/>
<polygon fill="#000000" stroke="#000000" points="652.1668,-132.114 660.9067,-126.1252 650.3397,-125.3566 652.1668,-132.114"/>
</g>
<!-- jupyter_md&#45;&gt;md -->
<g id="edge5" class="edge">
<title>jupyter_md&#45;&gt;md</title>
<path fill="none" stroke="#000000" d="M330,-439.5953C330,-431.6927 330,-422.5536 330,-414.0686"/>
<polygon fill="#000000" stroke="#000000" points="333.5001,-413.8128 330,-403.8129 326.5001,-413.8129 333.5001,-413.8128"/>
</g>
<!-- mdblog&#45;&gt;blog -->
<g id="edge7" class="edge">
<title>mdblog&#45;&gt;blog</title>
<path fill="none" stroke="#000000" d="M131.5884,-276.7628C132.5433,-264.3473 133.772,-248.3715 134.8172,-234.7815"/>
<polygon fill="#000000" stroke="#000000" points="138.3301,-234.7466 135.6073,-224.5076 131.3507,-234.2097 138.3301,-234.7466"/>
</g>
<!-- linguist -->
<g id="node11" class="node">
<title>linguist</title>
<ellipse fill="none" stroke="#000000" cx="1236" cy="-297.4156" rx="89.8189" ry="29.3315"/>
<text text-anchor="middle" x="1236" y="-301.6156" font-family="Times,serif" font-size="14.00" fill="#000000">languages.yml</text>
<text text-anchor="middle" x="1236" y="-284.8156" font-family="Times,serif" font-size="14.00" fill="#000000">(not a Gatsby node)</text>
</g>
<!-- lang_tags -->
<g id="node12" class="node">
<title>lang_tags</title>
<polygon fill="none" stroke="#000000" points="1332.3704,-227.0019 1139.6296,-227.0019 1139.6296,-185.7981 1332.3704,-185.7981 1332.3704,-227.0019"/>
<text text-anchor="middle" x="1236" y="-210.6" font-family="Times,serif" font-size="14.00" fill="#000000">LinguistLanguage</text>
<text text-anchor="middle" x="1236" y="-193.8" font-family="Times,serif" font-size="14.00" fill="#000000">(application/prs.astrid&#45;tech&#45;tag)</text>
</g>
<!-- linguist&#45;&gt;lang_tags -->
<g id="edge8" class="edge">
<title>linguist&#45;&gt;lang_tags</title>
<path fill="none" stroke="#000000" d="M1236,-267.8655C1236,-258.1071 1236,-247.2279 1236,-237.3666"/>
<polygon fill="#000000" stroke="#000000" points="1239.5001,-237.1667 1236,-227.1667 1232.5001,-237.1668 1239.5001,-237.1667"/>
</g>
<!-- lang_tags&#45;&gt;tag -->
<g id="edge9" class="edge">
<title>lang_tags&#45;&gt;tag</title>
<path fill="none" stroke="#000000" d="M1157.6323,-185.7248C1145.0958,-182.7697 1132.2277,-179.943 1120,-177.6 975.4568,-149.9038 801.2718,-130.3592 725.8553,-122.5607"/>
<polygon fill="#000000" stroke="#000000" points="725.7649,-119.0332 715.4602,-121.4958 725.0514,-125.9968 725.7649,-119.0332"/>
</g>
<!-- user_tags&#45;&gt;tag -->
<g id="edge14" class="edge">
<title>user_tags&#45;&gt;tag</title>
<path fill="none" stroke="#000000" d="M935.6268,-185.7509C869.2909,-167.8157 776.0742,-142.6127 725.0219,-128.8096"/>
<polygon fill="#000000" stroke="#000000" points="725.6603,-125.3566 715.0933,-126.1252 723.8332,-132.114 725.6603,-125.3566"/>
</g>
<!-- course_tag -->
<g id="node16" class="node">
<title>course_tag</title>
<polygon fill="none" stroke="#000000" points="676.3704,-227.0019 483.6296,-227.0019 483.6296,-185.7981 676.3704,-185.7981 676.3704,-227.0019"/>
<text text-anchor="middle" x="580" y="-210.6" font-family="Times,serif" font-size="14.00" fill="#000000">CourseTag</text>
<text text-anchor="middle" x="580" y="-193.8" font-family="Times,serif" font-size="14.00" fill="#000000">(application/prs.astrid&#45;tech&#45;tag)</text>
</g>
<!-- course&#45;&gt;course_tag -->
<g id="edge16" class="edge">
<title>course&#45;&gt;course_tag</title>
<path fill="none" stroke="#000000" d="M576.8095,-278.9973C577.337,-266.9935 578.0383,-251.036 578.6491,-237.1393"/>
<polygon fill="#000000" stroke="#000000" points="582.1515,-237.1578 579.0941,-227.0138 575.1583,-236.8504 582.1515,-237.1578"/>
</g>
<!-- course_tag&#45;&gt;tag -->
<g id="edge17" class="edge">
<title>course_tag&#45;&gt;tag</title>
<path fill="none" stroke="#000000" d="M605.5945,-185.64C621.1049,-173.0593 640.9862,-156.9334 657.3346,-143.673"/>
<polygon fill="#000000" stroke="#000000" points="659.9582,-146.0516 665.5198,-137.0339 655.5486,-140.6151 659.9582,-146.0516"/>
</g>
<!-- work_tag -->
<g id="node18" class="node">
<title>work_tag</title>
<polygon fill="none" stroke="#000000" points="892.3704,-227.0019 699.6296,-227.0019 699.6296,-185.7981 892.3704,-185.7981 892.3704,-227.0019"/>
<text text-anchor="middle" x="796" y="-210.6" font-family="Times,serif" font-size="14.00" fill="#000000">WorkTag</text>
<text text-anchor="middle" x="796" y="-193.8" font-family="Times,serif" font-size="14.00" fill="#000000">(application/prs.astrid&#45;tech&#45;tag)</text>
</g>
<!-- work&#45;&gt;work_tag -->
<g id="edge19" class="edge">
<title>work&#45;&gt;work_tag</title>
<path fill="none" stroke="#000000" d="M796,-278.9973C796,-266.9935 796,-251.036 796,-237.1393"/>
<polygon fill="#000000" stroke="#000000" points="799.5001,-237.0137 796,-227.0138 792.5001,-237.0138 799.5001,-237.0137"/>
</g>
<!-- work_tag&#45;&gt;tag -->
<g id="edge20" class="edge">
<title>work_tag&#45;&gt;tag</title>
<path fill="none" stroke="#000000" d="M770.4055,-185.64C754.8951,-173.0593 735.0138,-156.9334 718.6654,-143.673"/>
<polygon fill="#000000" stroke="#000000" points="720.4514,-140.6151 710.4802,-137.0339 716.0418,-146.0516 720.4514,-140.6151"/>
</g>
</g>
</svg>
