<?xml version="1.0" encoding="UTF-8" standalone="no"?>
<!DOCTYPE svg PUBLIC "-//W3C//DTD SVG 1.1//EN"
 "http://www.w3.org/Graphics/SVG/1.1/DTD/svg11.dtd">
<!-- Generated by graphviz version 2.40.1 (20161225.0304)
 -->
<!-- Title: %0 Pages: 1 -->
<svg width="412pt" height="194pt"
 viewBox="0.00 0.00 411.87 193.60" xmlns="http://www.w3.org/2000/svg" xmlns:xlink="http://www.w3.org/1999/xlink">
<g id="graph0" class="graph" transform="scale(1 1) rotate(0) translate(4 189.6)">
<title>%0</title>
<!-- project -->
<g id="node1" class="node">
<title>project</title>
<polygon fill="none" stroke="#000000" points="124.0899,-185.6 68.7805,-185.6 68.7805,-149.6 124.0899,-149.6 124.0899,-185.6"/>
<text text-anchor="middle" x="96.4352" y="-163.4" font-family="Times,serif" font-size="14.00" fill="#000000">Project</text>
</g>
<!-- project_tag -->
<g id="node2" class="node">
<title>project_tag</title>
<polygon fill="none" stroke="#000000" points="192.8056,-113.4019 .0648,-113.4019 .0648,-72.1981 192.8056,-72.1981 192.8056,-113.4019"/>
<text text-anchor="middle" x="96.4352" y="-97" font-family="Times,serif" font-size="14.00" fill="#000000">ProjectTag</text>
<text text-anchor="middle" x="96.4352" y="-80.2" font-family="Times,serif" font-size="14.00" fill="#000000">(application/prs.astrid&#45;tech&#45;tag)</text>
</g>
<!-- project&#45;&gt;project_tag -->
<g id="edge1" class="edge">
<title>project&#45;&gt;project_tag</title>
<path fill="none" stroke="#000000" d="M96.4352,-149.493C96.4352,-141.8083 96.4352,-132.6272 96.4352,-123.9145"/>
<polygon fill="#000000" stroke="#000000" points="99.9353,-123.6515 96.4352,-113.6515 92.9353,-123.6515 99.9353,-123.6515"/>
</g>
<!-- tag -->
<g id="node3" class="node">
<title>tag</title>
<polygon fill="none" stroke="#000000" points="228.4352,-36 174.4352,-36 174.4352,0 228.4352,0 228.4352,-36"/>
<text text-anchor="middle" x="201.4352" y="-13.8" font-family="Times,serif" font-size="14.00" fill="#000000">Tag</text>
</g>
<!-- project_tag&#45;&gt;tag -->
<g id="edge2" class="edge">
<title>project_tag&#45;&gt;tag</title>
<path fill="none" stroke="#000000" d="M125.4049,-72.1626C138.5753,-62.7802 154.2367,-51.6233 167.9129,-41.8807"/>
<polygon fill="#000000" stroke="#000000" points="170.0177,-44.6786 176.1316,-36.0258 165.9562,-38.9773 170.0177,-44.6786"/>
</g>
<!-- course -->
<g id="node4" class="node">
<title>course</title>
<polygon fill="none" stroke="#000000" points="335.0927,-185.6 279.7777,-185.6 279.7777,-149.6 335.0927,-149.6 335.0927,-185.6"/>
<text text-anchor="middle" x="307.4352" y="-163.4" font-family="Times,serif" font-size="14.00" fill="#000000">Course</text>
</g>
<!-- course_tag -->
<g id="node5" class="node">
<title>course_tag</title>
<polygon fill="none" stroke="#000000" points="403.8056,-113.4019 211.0648,-113.4019 211.0648,-72.1981 403.8056,-72.1981 403.8056,-113.4019"/>
<text text-anchor="middle" x="307.4352" y="-97" font-family="Times,serif" font-size="14.00" fill="#000000">CourseTag</text>
<text text-anchor="middle" x="307.4352" y="-80.2" font-family="Times,serif" font-size="14.00" fill="#000000">(application/prs.astrid&#45;tech&#45;tag)</text>
</g>
<!-- course&#45;&gt;course_tag -->
<g id="edge3" class="edge">
<title>course&#45;&gt;course_tag</title>
<path fill="none" stroke="#000000" d="M307.4352,-149.493C307.4352,-141.8083 307.4352,-132.6272 307.4352,-123.9145"/>
<polygon fill="#000000" stroke="#000000" points="310.9353,-123.6515 307.4352,-113.6515 303.9353,-123.6515 310.9353,-123.6515"/>
</g>
<!-- course_tag&#45;&gt;tag -->
<g id="edge4" class="edge">
<title>course_tag&#45;&gt;tag</title>
<path fill="none" stroke="#000000" d="M278.1896,-72.1626C264.8938,-62.7802 249.0832,-51.6233 235.2768,-41.8807"/>
<polygon fill="#000000" stroke="#000000" points="237.1683,-38.9318 226.9798,-36.0258 233.1323,-44.6511 237.1683,-38.9318"/>
</g>
</g>
</svg>
